<?xml version="1.0" encoding="UTF-8" standalone="no"?>
<!-- Created with Inkscape (http://www.inkscape.org/) -->

<svg
   xmlns:dc="http://purl.org/dc/elements/1.1/"
   xmlns:cc="http://creativecommons.org/ns#"
   xmlns:rdf="http://www.w3.org/1999/02/22-rdf-syntax-ns#"
   xmlns:svg="http://www.w3.org/2000/svg"
   xmlns="http://www.w3.org/2000/svg"
   xmlns:sodipodi="http://sodipodi.sourceforge.net/DTD/sodipodi-0.dtd"
   xmlns:inkscape="http://www.inkscape.org/namespaces/inkscape"
   id="svg2894"
   version="1.1"
   inkscape:version="0.48.4 r9939"
   width="376"
   height="366"
   sodipodi:docname="sasfit_icon.svg">
  <metadata
     id="metadata2900">
    <rdf:RDF>
      <cc:Work
         rdf:about="">
        <dc:format>image/svg+xml</dc:format>
        <dc:type
           rdf:resource="http://purl.org/dc/dcmitype/StillImage" />
        <dc:title />
      </cc:Work>
    </rdf:RDF>
  </metadata>
  <defs
     id="defs2898">
    <inkscape:perspective
       sodipodi:type="inkscape:persp3d"
       inkscape:vp_x="0 : 0.5 : 1"
       inkscape:vp_y="0 : 1000 : 0"
       inkscape:vp_z="1 : 0.5 : 1"
       inkscape:persp3d-origin="0.5 : 0.33333333 : 1"
       id="perspective2902" />
  </defs>
  <sodipodi:namedview
     pagecolor="#ffffff"
     bordercolor="#666666"
     borderopacity="1"
     objecttolerance="10"
     gridtolerance="10"
     guidetolerance="10"
     inkscape:pageopacity="0"
     inkscape:pageshadow="2"
     inkscape:window-width="1920"
     inkscape:window-height="1151"
     id="namedview2896"
     showgrid="false"
     inkscape:zoom="0.64480874"
     inkscape:cx="-1823.6988"
     inkscape:cy="-12.399824"
     inkscape:window-x="0"
     inkscape:window-y="25"
     inkscape:window-maximized="1"
     inkscape:current-layer="g3018" />
  <rect
     style="fill:#ffffff;fill-opacity:1;fill-rule:evenodd;stroke:none"
     id="rect3135"
     width="400"
     height="400"
     x="-948.35632"
     y="-56.825069"
     inkscape:export-filename="/home/ingo/code/sasfit/trunk/from_cvs/doc/images/sasfit_icon_16.png"
     inkscape:export-xdpi="3.5999999"
     inkscape:export-ydpi="3.5999999" />
  <g
     id="g3029">
    <path
       sodipodi:nodetypes="czzssssssszzzzzzcczzzzzzzzzzzzzzzzzzzzzzcczzzzzzsssccszcssssssssszcsssc"
       style="fill:#fcfd7d"
       d="m -1277.0325,258.32502 c -5.631,-9.14987 -4.5704,-8.72655 -6.8797,-16.41889 -2.3094,-7.69235 -0.8682,-5.85269 -2.3945,-12.75042 -1.5264,-6.89773 -1.6723,-7.71292 -2.2661,-10.15436 -1.1369,-4.67503 -4.7765,-20.5846 -6.0686,-24.37978 -0.5393,-1.58384 3.1738,9.93696 -2.6556,-10.71884 -2.0177,-7.14944 -3.2671,-12.43754 -5.5453,-19.22301 -0.7495,-2.23221 -3.9617,-13.16263 -5.6196,-17.40038 -3.7574,-9.60449 -5.3796,-13.06243 -6.1802,-15.33158 -0.8006,-2.26915 -4.8108,-11.80203 -4.3572,-11.80203 0.4536,0 -5.423,-10.35147 -6.2018,-10.83277 -0.7787,-0.48131 -0.9853,-1.65245 -0.9853,-2.92782 0,-1.27538 -0.6893,-3.96863 -1.5318,-5.985 -0.8424,-2.016373 -1.285,-4.065551 -0.9833,-4.553706 0.3017,-0.488155 0.6379,-0.824985 -1.5269,-2.34122 -2.1648,-1.516235 -12.304,-16.526294 -13.8118,-18.255337 -1.5079,-1.729043 -0.9163,-7.516522 -10.7234,-14.218882 -9.8071,-6.70236 -2.2402,-3.431878 -20.4228,-16.451874 -12.2671,-8.422141 -40.7686,-20.735031 -52.479,-23.745691 -11.7104,-3.010661 -9.2745,-0.714098 -11.021,-2.833437 -1.7465,-2.119339 -0.1688,-2.841346 -0.3023,-5.08898 -0.1335,-2.247634 0.059,-5.081959 0.5,-5.073359 0.4411,0.0086 3.5023,0.654264 6.8023,1.434828 3.3,0.780559 6.3028,1.111034 6.673,0.734379 0.3702,-0.376655 0.7587,-1.470407 1,-3.684828 0.2413,-2.214421 1.8077,-3 4.327,-3 2.5193,0 2.9393,-1.0606602 4,0 1.0607,1.0606602 0,1.8110817 0,5 0,3.188918 0.3891,5.044765 2.75,5.316422 2.361,0.271657 2.75,0.417734 2.75,-1.55 0,-1.967734 1.6691,-4.266422 4.5775,-4.266422 2.9084,0 4.7132,2.821196 4.1486,6.300483 -0.5646,3.479287 0.08,3.61528 4.9353,6.241536 4.855,2.626257 8.2854,2.957981 12.1534,2.957981 3.868,0 5.4201,-1.087103 6.6852,0 1.2651,1.087103 0.2362,1.551876 0.5,3.284997 0.2638,1.733121 2.0986,4.546536 4.8907,6.75 2.7921,2.203465 4.3475,3.465003 5.1098,3.465003 0.7623,0 16.5828,13.3258 16.9995,14.39192 0.4166,1.06612 2.1875,2.750015 4.25,4.54736 2.0625,1.797345 3.75,3.85879 3.75,4.58098 0,0.72219 13.5591,18.721076 15.3194,21.381041 1.7603,2.659965 2.684,4.685375 2.684,5.45482 0,0.769445 0.675,1.95919 1.5,2.64388 0.825,0.68469 1.5,1.669815 1.5,2.18917 0,0.519355 1.125,2.41922 2.5,4.22194 1.375,1.80272 2.5,3.932696 2.5,4.733276 0,0.80058 -0.7641,-2.157618 0.8711,2.40561 1.6352,4.56323 4.3763,9.67713 8.0166,17.84245 6.1238,13.73601 4.4782,11.87393 6.4191,16.41555 2.5186,5.89344 6.7059,19.70776 8.6757,26.46492 3.4797,11.93591 5.4728,22.37105 6.1198,27.12019 1.2964,7.78117 4.3323,15.25252 5.8011,22.99459 0.6334,0.76323 1.6471,6.21896 2.2527,9.44323 0.6056,3.22426 1.1444,9.57317 4.0674,16.30491 2.9231,6.73174 6.7487,28.6756 13.527,12.73493 0.828,-2.2 0.6446,-6.35634 0.9326,-7.56093 0.2881,-1.20459 1.3764,-2.96183 2.4186,-3.90499 1.0422,-0.94315 1.8949,-2.30187 1.8949,-3.01937 0,-0.7175 1.2375,-2.46159 2.75,-3.87576 3.47,-3.24446 7.1449,-2.97975 9.1792,0.66121 1.4482,2.59176 1.3547,2.81808 -3.1517,7.63581 -3.2305,3.45363 -4.8396,6.1411 -5.2864,8.82907 -0.9742,5.85998 -2.5478,9.57889 -5.3377,12.61419 -2.144,2.33268 -3.3277,2.75 -7.8001,2.75 -4.4621,0 -6.5683,0.65287 -12.1994,-8.49701 z m 35.2173,-36.11001 c -2.8012,-2.80112 3.7049,-9.39298 8.557,-9.39298 1.5548,0 3.2687,0.5625 3.8086,1.25 1.4145,1.80105 0.8928,6.58303 -0,8.03371 -0.8093,1.30946 -11.2623,1.20881 -12.3618,0.10927 z"
       id="path2948" />
    <path
       sodipodi:nodetypes="csssssccsssccsssccssssssssssscccccssssssscccssssccssssssssssssssssssssccscccsssssscccssssc"
       style="fill:#7bf9fb"
       d="m -1184.6864,277.93108 c 5.8975,-0.7604 7.5,-1.60823 7.5,-3.96807 0,-2.52719 2.0035,-4.14098 5.1409,-4.14098 3.4125,0 4.5066,1.59908 2.609,3.81301 -0.7953,0.92785 -1.6957,2.39746 -2.0009,3.2658 -0.4472,1.27242 -2.2718,1.58814 -9.402,1.62687 -6.9987,0.038 -7.8024,-0.0866 -3.847,-0.59663 z m -147.3,-11.30905 c -1.3103,-1.31022 -1.5424,-3.74428 -0.593,-6.21821 0.7171,-1.8688 5.4545,-2.12025 7.193,-0.38179 2.805,2.805 0.6917,7.8 -3.3,7.8 -1.155,0 -2.64,-0.54 -3.3,-1.2 z m -53,-7 c -1.5425,-1.5425 -1.5425,-5.0575 0,-6.6 2.805,-2.805 7.8,-0.69173 7.8,3.3 0,2.68046 -1.8196,4.5 -4.5,4.5 -1.155,0 -2.64,-0.54 -3.3,-1.2 z m 31.8,-1.41594 c -6.8791,-1.28572 -23.6775,-10.50494 -42.7793,-23.47783 -2.3536,-1.59843 -4.4911,-2.90623 -4.75,-2.90623 -0.2589,0 -0.4707,1.485 -0.4707,3.3 0,3.79965 -1.5003,5.7 -4.5,5.7 -2.6805,0 -4.5,-1.81954 -4.5,-4.5 0,-2.74368 1.8343,-4.5 4.7,-4.5 3.7196,0 2.6579,-1.78495 -2.6668,-4.48315 -5.9424,-3.01123 -7.0332,-3.11039 -7.0332,-0.63929 0,4.12434 -6.1131,5.50935 -8.3767,1.89788 -0.7838,-1.25032 -0.7518,-2.59684 0.1163,-4.89654 0.6585,-1.74459 1.0224,-3.45494 0.8086,-3.80078 -0.2137,-0.34584 -4.0245,-2.16581 -8.4684,-4.04437 l -8.0798,-3.41558 0,-5.43408 0,-5.43409 3.1963,0.63926 c 1.7579,0.35159 5.0077,1.42034 7.2217,2.375 6.5094,2.80685 26.9508,13.31558 28.582,14.69371 0.825,0.69704 5.325,3.5072 10,6.24481 4.675,2.73761 11.65,6.99039 15.5,9.45061 5.9258,3.78674 12.1153,7.20537 21.8723,12.08079 1.0298,0.51457 4.1798,1.16493 7,1.44524 6.4766,0.64373 12.926,-1.98271 20.265,-8.25256 4.8531,-4.14621 5.5283,-4.42401 9.2897,-3.82254 l 4.0562,0.64861 -0.642,4.12353 c -0.3531,2.26795 -1.6994,5.39557 -2.9916,6.95027 -1.2923,1.55469 -2.3496,3.63709 -2.3496,4.62755 0,2.97137 -2.3871,4.16736 -6.8829,3.44847 -2.7212,-0.43514 -4.6214,-0.22912 -5.6335,0.61079 -1.5544,1.29008 -17.6611,2.27188 -22.4836,1.37052 z m 43.0147,-21.90182 c 0.8411,-1.0134 1.0629,-3.17892 0.6676,-6.51663 -0.5389,-4.55048 -0.3215,-5.30701 2.4244,-8.43439 1.659,-1.88955 3.844,-3.69819 4.8554,-4.01921 1.0115,-0.32103 2.1145,-1.68118 2.4512,-3.02257 0.3366,-1.34138 1.76,-3.04036 3.1631,-3.7755 1.4031,-0.73513 3.0967,-2.43401 3.7637,-3.77527 0.8267,-1.66252 2.3039,-2.5978 4.6414,-2.93867 3.0697,-0.44763 3.5383,-0.94443 4.4737,-4.74283 0.7748,-3.14634 1.9813,-4.87795 4.6688,-6.70042 1.9931,-1.35168 3.8915,-3.15491 4.2186,-4.00717 0.356,-0.92788 1.8108,-1.54958 3.626,-1.54958 2.861,0 3.0314,0.2209 3.0314,3.93051 0,3.55795 -0.7583,4.71364 -8,12.19269 -4.4,4.5442 -8,8.62547 -8,9.06949 0,0.44402 -0.6862,0.80731 -1.5248,0.80731 -0.8386,0 -1.9384,1.08796 -2.4439,2.41769 -0.5056,1.32973 -3.4195,5.04054 -6.4753,8.24624 -3.0558,3.2057 -5.556,6.19178 -5.556,6.63574 0,0.44395 -1.2375,2.35813 -2.75,4.25373 -1.9872,2.49054 -3.5468,3.44655 -5.6225,3.44657 -2.4548,3e-5 -2.6893,-0.22062 -1.6128,-1.51773 z m 78.3122,-31.63297 c -5.7217,-1.28409 -11.8251,-7.87783 -10.8375,-11.70815 0.3746,-1.45262 0.6474,-4.04659 0.6063,-5.76439 l -0.075,-3.12327 3.2885,1.49052 c 1.8086,0.81978 4.033,2.78775 4.9429,4.37327 0.9751,1.69896 2.4949,2.88275 3.701,2.88275 1.4802,0 2.0465,0.6489 2.0465,2.34501 0,1.28976 0.8707,3.13296 1.9348,4.096 1.5991,1.44716 1.7448,2.16814 0.8395,4.15499 -0.6024,1.3222 -1.3606,2.35581 -1.6848,2.29691 -0.3242,-0.0589 -2.4674,-0.52854 -4.7625,-1.04364 l 3e-4,0 z m -25.1789,-13.15571 c -3.3975,-1.20976 -6.6347,-6.35025 -5.292,-8.40331 0.7736,-1.18274 10.5868,-2.44131 12.7031,-1.6292 2.5783,0.9894 3.4327,3.78449 2.3527,7.69623 -0.8472,3.06802 -1.4323,3.63382 -3.7088,3.58628 -1.4867,-0.031 -4.2114,-0.59355 -6.055,-1.25 z"
       id="path2946" />
    <path
       sodipodi:nodetypes="czzsssscccssssssssszzzsssssssssssssccsczzcsssssssssssssssssssssscsssssss"
       style="fill:#f77bfb"
       d="m -1311.999,243.67044 c -1.1055,-2.64536 -1.2388,-2.19841 -7.1326,-14.0545 -5.8938,-11.85609 -4.7364,-12.45847 -10.2242,-25.10086 -5.4878,-12.6424 -11.339,-23.57376 -16.0601,-31.32455 -7.941,-13.03705 -15.7705,-21.80994 -15.7705,-22.23995 0,-1.42267 -1.0501,-2.5456 -3.25,-3.47558 -1.7875,-0.75564 -5.5223,-3.7992 -8.2994,-6.76342 -11.3719,-12.13796 -34.6868,-25.50687 -57.4506,-32.9426 l -8.5,-2.7765 -0.3023,-5.085216 c -0.2705,-4.55081 -0.088,-5.08523 1.738,-5.08523 5.7391,0 36.3626,11.729416 41.808,16.013326 1.5159,1.19259 4.2182,2.77929 6.0051,3.52598 4.4539,1.86126 17.0079,11.55754 17.7734,13.72768 0.3428,0.97184 2.0531,2.36558 3.8005,3.09713 4.0069,1.67748 10.6773,8.98105 10.6773,11.69078 0,1.38458 4.0034,5.13499 6.0614,5.85241 1.9883,0.69311 6.9288,8.35552 8.0444,10.72936 1.1156,2.37384 9.128,13.63701 11.8583,18.7017 2.7303,5.06469 3.7645,7.04767 7.6803,15.57276 3.9158,8.5251 5.6354,14.0358 9.336,23.10703 3.7006,9.07123 6.6736,16.52525 11.3967,26.82123 4.7231,10.29598 11.0359,21.16061 13.1495,21.16061 1.8609,0 7.0914,-5.47507 9.0756,-9.5 0.8135,-1.65 2.5681,-4.8 3.8991,-7 1.331,-2.2 2.9214,-5.20781 3.5342,-6.68402 0.6128,-1.4762 2.2055,-3.39908 3.5393,-4.27305 1.3338,-0.87397 2.4252,-2.4521 2.4252,-3.50697 0,-1.05486 0.4377,-2.18848 0.9728,-2.51917 0.535,-0.33068 1.4512,-2.37771 2.0358,-4.54895 1.0883,-4.04171 3.5433,-5.57905 7.6623,-4.79821 2.6538,0.5031 3.0096,6.40823 0.5863,9.73358 -1.0408,1.42823 -2.1868,3.38818 -2.5467,4.35544 -0.3599,0.96726 -1.7679,2.26598 -3.1288,2.88606 -1.8632,0.84893 -2.7361,2.34774 -3.534,6.06813 -1.522,7.09682 -2.5884,8.61609 -6.2991,8.9739 l -3.05,6.10958 c 0.1922,5.60923 0.057,5.94008 -4.192,10.25 -4.5373,4.60247 -6.6922,5.1555 -14.5066,3.72304 -4.6258,-0.84794 -11.5624,-12.35851 -14.6118,-19.35536 -3.0494,-6.99685 -3.0953,-8.42023 -4.2008,-11.06559 z m 209.5889,57.99174 c -0.019,1.29974 -1.8773,1.79851 -2.8159,2.69777 -2.4107,2.30956 -3.3659,2.6045 -6.6381,2.04971 -2.1023,-0.35644 -5.8473,-0.97196 -8.3223,-1.36784 -3.3548,-0.53661 -4.7545,-1.30756 -5.5,-3.02937 -0.8541,-1.97263 -1.4926,-2.21788 -4.3763,-1.681 -4.4129,0.82159 -8.8103,-1.06923 -9.8683,-4.24322 -0.5506,-1.6517 -2.0398,-2.92082 -4.282,-3.6493 -2.0317,-0.66009 -4.2631,-2.4304 -5.4556,-4.32838 -1.1098,-1.76632 -2.7504,-3.22881 -3.6457,-3.25 -0.8953,-0.0212 -3.1455,-0.6726 -5.0003,-1.44759 -1.8548,-0.77499 -4.6255,-1.1695 -6.1571,-0.87672 -5.2087,0.99571 -9.0275,-5.5499 -5.1266,-8.78735 2.3695,-1.96651 9.4563,-2.22407 13.5965,-0.49417 2.0068,0.8385 4.6168,2.88414 5.8001,4.54591 1.5096,2.12 2.9799,3.0214 4.9284,3.0214 3.1728,0 5.5257,2.26809 6.4678,6.23477 0.4141,1.74362 1.4595,2.89876 2.8843,3.18725 7.9149,1.60257 7.7348,1.49301 7.7348,4.70402 0,2.58737 0.2837,2.95469 1.75,2.26594 3.7387,-1.75612 18.0164,-0.0256 20.5304,2.48845 0.6158,0.61579 2.0718,0.51181 2.6696,1.1196 0,0 0.8321,0.44737 0.8263,0.84012 z m -125.7763,-84.30682 c -2.6206,-4.04237 -5.7675,-6.01376 -12.2612,-2.53333 -4.9268,2.64062 -7.35,2.52306 -9.2987,-0.45104 -2.3311,-3.55768 -1.0918,-5.7412 4.7747,-8.41281 4.2075,-1.91611 6.1779,-2.24781 10.4028,-1.75126 6.8927,0.8101 7.9049,1.27174 9.2469,4.21717 1.5489,3.39938 0.6944,5.63686 -0.3645,7.39794 -0.5448,0.90606 -0.2715,4.97086 -2.5,1.53333 z"
       id="path2944" />
    <path
       style="fill:#1619f5"
       d="m -1080.5366,312.12322 c -1.3047,-2.49009 -1.237,-2.83811 0.8758,-4.5 4.7032,-3.69959 10.491,-0.60537 8.5275,4.55896 -0.8203,2.1577 -1.6416,2.63985 -4.4964,2.63985 -2.7784,0 -3.7821,-0.55208 -4.9069,-2.69881 z m -47.8403,-17.807 c -0.3178,-2.72172 0.012,-3.86349 1.3176,-4.56222 3.9931,-2.13703 7.0187,-0.74825 8.1098,3.72247 0.4398,1.80183 0.013,2.22698 -2.6055,2.59762 -1.7223,0.24374 -3.8664,0.76474 -4.7648,1.15778 -1.3089,0.57267 -1.7175,-0.006 -2.0571,-2.91565 z m -63.8095,-17.0436 c -0.825,-0.17458 -3.131,-0.58217 -5.1245,-0.90576 -3.8843,-0.63053 -9.8755,-5.53775 -9.8755,-8.08871 0,-0.83957 -0.7077,-2.60657 -1.5727,-3.92667 -0.8649,-1.3201 -1.4274,-3.66677 -1.25,-5.21481 0.2831,-2.4694 0.7386,-2.81464 3.7137,-2.81464 2.3555,0 3.7289,0.61073 4.4975,2 3.1242,5.64717 5.8439,8.5 8.1033,8.5 1.3146,0 2.6591,0.43526 2.9879,0.96725 0.6989,1.13088 5.4425,0.44709 10.7905,-1.55548 4.4219,-1.6558 8.9127,-1.82888 10.3429,-0.39864 0.6842,0.68416 2.0698,0.64475 4.2676,-0.1214 4.2572,-1.48406 10.858,1.21916 11.7609,4.81641 0.8153,3.24853 -0.033,3.78645 -3.6261,2.2983 -1.6767,-0.69452 -4.5883,-1.01291 -6.4701,-0.70752 -2.3069,0.37435 -3.8074,0.0903 -4.606,-0.87184 -1.4418,-1.73737 -6.0927,-1.87383 -7.7394,-0.22708 -0.66,0.66 -1.2,1.99417 -1.2,2.96482 0,0.97065 -0.8705,2.23065 -1.9343,2.8 -1.7784,0.95175 -9.5059,1.23905 -13.0657,0.48577 z m -21.8,-26.65059 c -0.66,-0.66 -1.2,-3.05706 -1.2,-5.32681 0,-4.08202 0.035,-4.12189 3.25,-3.67436 4.3042,0.5992 5.75,1.8875 5.75,5.12361 0,3.2168 -1.6491,5.07756 -4.5,5.07756 -1.155,0 -2.64,-0.54 -3.3,-1.2 z m -4.2,-14.08791 c -1.6374,-0.8242 -2.616,-2.2697 -2.8361,-4.18914 -0.1849,-1.61188 -0.9724,-3.83908 -1.75,-4.94933 -0.7777,-1.11025 -1.4139,-3.02114 -1.4139,-4.24644 0,-1.22529 -0.7875,-2.67613 -1.75,-3.22408 -1.4617,-0.83211 -1.543,-1.29346 -0.4937,-2.79969 2.3572,-3.38352 2.5542,-4.55587 1.3329,-7.93331 -1.464,-4.0486 -0.596,-7.61215 1.7462,-7.16865 1.1197,0.21201 1.7647,1.51505 1.9704,3.98075 0.1682,2.01607 0.9557,4.20493 1.75,4.86413 0.7943,0.65921 1.4585,2.38096 1.476,3.82611 0.018,1.44516 0.6925,3.50107 1.5,4.56869 0.8075,1.06762 1.4825,2.86762 1.5,4 0.018,1.13238 0.6925,2.93238 1.5,4 1.7164,2.26927 1.898,5.88719 0.433,8.62461 -1.2123,2.26515 -1.6387,2.32065 -4.9648,0.64635 z m -220.3334,-39.37876 c -0.3666,-0.36666 -0.6666,-4.13844 -0.6666,-8.38172 l 0,-7.71506 8.75,-0.68712 c 25.2311,-1.98135 60.0494,-9.26472 71.6826,-14.99475 3.5489,-1.74806 5.4239,-2.16663 6.6842,-1.49214 2.7138,1.45238 6.6038,1.10791 7.2762,-0.64433 0.3338,-0.86998 0.607,-2.66998 0.607,-4 0,-1.81502 0.5415,-2.41821 2.1709,-2.41821 2.8625,0 14.0576,-5.49007 16.3417,-8.01393 0.9885,-1.09234 2.9651,-2.00202 4.3924,-2.02151 1.4272,-0.0195 3.72,-0.67854 5.095,-1.46456 1.375,-0.78602 4.2831,-1.44508 6.4624,-1.46456 3.0883,-0.0276 4.4403,-0.63477 6.1286,-2.75205 2.0871,-2.61749 2.5628,-2.72704 13.0376,-3.00228 5.9792,-0.15712 12.4464,0.14311 14.3714,0.66718 1.925,0.52407 4.6825,1.19487 6.1278,1.49067 2.6481,0.54197 5.5274,2.59934 17.3929,12.42813 4.6084,3.81739 6.4793,6.04498 6.4793,7.71482 0,1.32427 0.8718,2.81433 2,3.41809 1.1,0.5887 2,1.52684 2,2.08475 0,0.55791 1.6358,2.67958 3.6352,4.71482 3.6699,3.73568 7.3023,10.32902 7.3428,13.32799 0.012,0.89515 0.697,2.18775 1.522,2.87244 0.825,0.68469 1.5,2.31479 1.5,3.62244 0,3.54606 -3.6671,3.1346 -5.7965,-0.65039 -0.937,-1.66537 -2.7341,-3.29368 -3.9936,-3.61847 -1.2727,-0.32817 -3.129,-2.20396 -4.1782,-4.22206 -1.0384,-1.99733 -4.1913,-6.10652 -7.0064,-9.13152 -2.8151,-3.025 -5.5297,-6.49528 -6.0325,-7.71174 -1.272,-3.07722 -18.0067,-16.225 -20.6958,-16.25977 -1.2116,-0.0157 -3.3114,-0.53354 -4.6662,-1.15083 -1.7595,-0.80171 -4.4155,-0.83573 -9.297,-0.11911 -4.3014,0.63145 -7.2712,0.65288 -8.014,0.0578 -0.6492,-0.51998 -2.8814,-0.80387 -4.9605,-0.63089 -3.0677,0.25523 -3.8886,0.7774 -4.3543,2.76969 -0.5738,2.45406 -6.5293,6.33957 -17.005,11.09445 -2.475,1.12339 -6.1895,2.8663 -8.2543,3.87313 -2.6253,1.28006 -5.0913,1.67992 -8.1998,1.32955 -4.1514,-0.46793 -4.4894,-0.32578 -5.1107,2.1497 -0.3659,1.45792 -1.626,3.18515 -2.8003,3.8383 -3.2327,1.79814 -12.9903,5.74983 -14.2106,5.75508 -0.5916,0.003 -2.1666,1.17124 -3.5,2.59709 -1.9996,2.13827 -3.0728,2.50647 -6.1259,2.10165 -3.1358,-0.41579 -3.9531,-0.10703 -5.3467,2.01989 -1.4541,2.21931 -2.1135,2.4358 -5.6811,1.86531 -3.3621,-0.53762 -4.2738,-0.3059 -5.46,1.38765 -1.6989,2.42552 -5.0263,2.62093 -8.0899,0.47511 -2.7824,-1.94891 -4.2207,-1.1253 -4.2207,2.41696 0,6.62373 -7.9405,7.18971 -9.1539,0.65246 -0.5784,-3.1162 -3.4984,-3.01094 -5.0214,0.18101 -1.8745,3.92888 -6.1021,4.33993 -8.41,0.81772 -2.1983,-3.35508 -5.7673,-3.07586 -6.2605,0.48979 -0.1902,1.375 -0.8078,3.0625 -1.3725,3.75 -1.0817,1.31712 -5.9797,1.71868 -7.1151,0.58333 z"
       id="path2942" />
    <path
       style="fill:#14f314"
       d="m -1133.6864,290.09525 c -3.5794,-0.5096 -4.0456,-0.94084 -4.89,-4.52322 -0.5903,-2.5045 -0.3957,-2.75 2.1798,-2.75 1.5553,0 3.7014,0.66069 4.769,1.4682 1.0677,0.8075 2.7021,1.4825 3.6322,1.5 2.5905,0.0487 3.2251,2.00135 1.1591,3.56653 -1.0176,0.77092 -2.3001,1.34855 -2.8501,1.28363 -0.55,-0.0649 -2.35,-0.31023 -4,-0.54514 z m -16.8019,-13.78482 c -3.0753,-3.8542 -2.8402,-5.4884 0.7895,-5.4884 3.2142,0 5.5124,2.53121 5.5124,6.07143 0,4.09314 -2.7757,3.83634 -6.3019,-0.58303 z m -39.8773,-8.62031 c -0.7265,-0.46061 -2.2799,-0.84436 -3.4521,-0.85278 -2.3042,-0.0165 -7.3687,-5.82328 -7.3687,-8.44859 0,-2.12151 6.5503,-2.18088 7.3616,-0.0667 0.8463,2.20534 5.373,1.86439 6.6384,-0.5 0.5887,-1.1 1.617,-2.00277 2.2852,-2.00616 0.6681,-0.003 2.3909,-0.61988 3.8285,-1.36999 3.7372,-1.95007 12.7095,-0.33392 19.7462,3.55686 6.141,3.39546 7.1016,4.36429 7.1248,7.18587 0.013,1.54113 -0.4642,1.74445 -2.7347,1.16614 -5.217,-1.32879 -18.6019,-1.60683 -21.6988,-0.45075 -5.0096,1.87017 -10.3221,2.67906 -11.7304,1.78612 z m -19.6442,-13.43651 c 0.1779,-0.86263 1.5267,-2.29611 2.9974,-3.18551 2.2211,-1.34318 2.9409,-1.39554 4.25,-0.30914 0.8668,0.71938 1.576,2.15286 1.576,3.18551 0,1.56305 -0.7661,1.87756 -4.5733,1.87756 -3.6247,0 -4.5063,-0.32536 -4.25,-1.56842 z m -16.4881,-55.2233 c -1.0548,-1.16545 -1.6885,-3.54405 -1.6885,-6.33702 0,-2.45919 -0.5096,-4.98083 -1.1324,-5.60364 -0.6228,-0.6228 -2.0146,-3.74547 -3.0928,-6.93925 -1.3338,-3.95102 -3.2069,-6.95763 -5.8606,-9.40753 -2.464,-2.27474 -4.1375,-4.85641 -4.5445,-7.01075 -0.3543,-1.87555 -1.2182,-4.08509 -1.9196,-4.91009 -1.5089,-1.77459 -6.4501,-12.76537 -6.4501,-14.34688 0,-1.37522 -11.2511,-21.53754 -14.8373,-26.58883 -8.9558,-12.6147 -16.9627,-21.693956 -23.1627,-26.264676 -11.8367,-8.72614 -17.9463,-12.01104 -23.7342,-12.76078 -3.1712,-0.41078 -7.0326,-1.26257 -8.5809,-1.89286 -1.5483,-0.63028 -4.1654,-1.14597 -5.8158,-1.14597 -1.6503,0 -3.9684,-0.51796 -5.1513,-1.15101 -2.6463,-1.41625 -8.8402,-1.82112 -33.2378,-2.17262 -10.461,-0.15071 -19.5761,-0.61773 -20.2558,-1.03782 -0.6798,-0.42008 -2.7621,-0.2119 -4.6275,0.46263 -2.6789,0.96871 -4.0142,0.96855 -6.3543,-7.8e-4 -3.0668,-1.27027 -20.9522,-2.401931 -34.4924,-2.182421 l -7.75,0.125641 0,-5.620001 0,-5.61999 5.75,0.59184 c 3.1625,0.32552 20.825,1.0524 39.25,1.6153 37.2429,1.13781 39.3577,1.33883 42.8316,4.07147 2.9736,2.33903 5.9225,2.45022 8.2848,0.31237 1.5823,-1.43191 2.9415,-1.47123 12.5788,-0.36383 5.9426,0.68285 12.3222,1.85527 14.1769,2.60538 1.8547,0.75011 4.5547,1.37039 6,1.37839 3.2396,0.0179 11.0992,2.679971 13.1279,4.446361 0.825,0.71834 3.4758,2.29993 5.8906,3.51465 2.4149,1.21473 5.2881,3.04472 6.3851,4.06666 1.0969,1.02193 3.4287,2.5387 5.1818,3.3706 1.7531,0.8319 3.6781,2.54183 4.2777,3.79986 0.5997,1.25803 4.0546,5.61956 7.6776,9.6923 3.6229,4.072726 6.5872,7.753086 6.5872,8.178566 0,0.42548 0.5625,1.3777 1.25,2.11605 3.0819,3.30985 9.75,14.1256 9.75,15.81464 0,1.02725 0.4564,2.14982 1.0143,2.49459 0.5578,0.34478 1.9683,2.50884 3.1343,4.80902 1.166,2.30018 2.5338,4.44865 3.0394,4.77437 0.5057,0.32573 1.6102,3.2373 2.4544,6.47016 0.8442,3.23287 2.395,7.08583 3.4462,8.56215 1.0513,1.47632 1.9257,3.73974 1.9432,5.02984 0.018,1.2901 0.6777,3.19889 1.4671,4.24177 0.7894,1.04287 2.3769,4.86787 3.5278,8.5 1.1509,3.63212 2.7407,7.79829 3.5329,9.25815 0.7922,1.45986 1.4404,4.25653 1.4404,6.21482 0,2.56608 0.5726,3.86696 2.0501,4.65771 1.7313,0.9266 2.0034,1.90235 1.75,6.27582 -0.3336,5.75597 -2.1684,7.15789 -5.1116,3.90564 z"
       id="path2940" />
    <path
       style="fill:#f31412"
       d="m -1142.0096,281.76412 c -2.2153,-1.79381 -2.2206,-1.84829 -0.2831,-2.88521 2.6338,-1.40958 4.6321,-1.33316 5.9266,0.22666 2.4737,2.98061 -2.4066,5.27963 -5.6435,2.65855 z m -11.1663,-12.42936 c -1.6195,-1.95136 -0.5776,-4.51273 1.8356,-4.51273 2.4261,0 4.554,2.51477 3.7971,4.48727 -0.7437,1.93813 -4.0329,1.953 -5.6327,0.0255 z m -10.8663,-12.83897 c -0.6358,-0.76607 -4.4526,-1.95676 -8.4819,-2.64599 -6.3989,-1.09457 -7.7178,-1.05045 -10.4234,0.34868 -1.9909,1.0295 -4.2161,1.37812 -6.2281,0.97572 -1.7982,-0.35965 -4.113,-0.10026 -5.4392,0.6095 -3.4898,1.86767 -6.0202,0.96835 -6.3931,-2.27213 -0.2193,-1.90639 -1.127,-3.09967 -2.8587,-3.75802 -2.1693,-0.82478 -2.3478,-1.19291 -1.2309,-2.53863 1.0313,-1.24271 2.4248,-1.43421 6.6211,-0.90992 4.0825,0.51008 6.704,0.18329 11.3064,-1.40946 7.4287,-2.57087 13.516,-2.63543 19.1507,-0.2031 5.8657,2.5321 8.0502,5.16069 7.6532,9.20904 -0.3555,3.62496 -1.9102,4.72214 -3.6761,2.59431 z m -69.4864,-96.75188 c -2.8839,-4.11732 -1.53,-6.9942 2.3215,-4.93294 2.3531,1.25932 2.5563,2.89626 0.6785,5.46432 -1.2815,1.75259 -1.4171,1.72858 -3,-0.53138 z m -10.5447,-25.5052 c -1.1622,-1.47752 -2.1131,-3.11723 -2.1131,-3.64381 0,-0.52658 -0.9,-2.10158 -2,-3.5 -1.1,-1.39842 -2,-4.00442 -2,-5.7911 0,-2.4075 -0.5178,-3.38391 -2,-3.77152 -1.6136,-0.42197 -2,-1.36401 -2,-4.87608 0,-3.1018 -0.5152,-4.67479 -1.7922,-5.47231 -0.9857,-0.61557 -3.0997,-4.43632 -4.6978,-8.490536 -1.598,-4.05423 -3.4916,-8.25895 -4.2078,-9.34383 -0.7162,-1.08487 -1.3022,-2.84944 -1.3022,-3.92126 0,-1.07181 -0.667,-2.68577 -1.4823,-3.58658 -1.4017,-1.54887 -3.6768,-5.38016 -8.622,-14.519651 -1.1904,-2.2 -2.4769,-4.225 -2.8587,-4.5 -0.3819,-0.275 -1.9891,-2.90119 -3.5714,-5.83597 -1.5824,-2.93479 -5.372,-7.97502 -8.4213,-11.200528 -3.0494,-3.225506 -6.7261,-7.124319 -8.1706,-8.664029 -5.0573,-5.390831 -12.7117,-11.301091 -17.0377,-13.155451 -2.4004,-1.02892 -4.9756,-2.607248 -5.7226,-3.507393 -0.7471,-0.900146 -1.857,-1.636629 -2.4665,-1.636629 -1.5997,0 -11.4686,-3.832319 -16.1469,-6.270142 -2.2,-1.146407 -5.8,-2.474672 -8,-2.9517 -15.9322,-3.454598 -70.012,-10.377046 -86.2946,-11.046092 l -4.2945,-0.176462 0.2945,-5.018436 c 0.3271,-5.573386 2.0694,-6.798398 6.3846,-4.489015 1.5703,0.84043 4.3475,1.034247 8.5403,0.596017 3.4172,-0.357175 7.5984,-0.225347 9.2914,0.292952 3.6759,1.125328 26.691,3.463174 31.3793,3.187476 4.679,-0.275156 15.0808,1.751849 17.6592,3.44128 1.1974,0.784604 5.0713,1.614304 8.6085,1.843777 3.5372,0.229474 8.4563,1.124628 10.9313,1.989232 2.475,0.864603 5.4265,1.578555 6.5588,1.58656 1.1324,0.008 2.9324,0.675241 4,1.48275 1.0677,0.807508 2.7372,1.482508 3.7101,1.5 0.9729,0.01749 4.1824,1.319717 7.1322,2.893834 2.9498,1.574118 6.4288,3.139394 7.7311,3.478392 1.3023,0.338998 4.7394,2.426084 7.6381,4.637968 2.8986,2.211885 5.6718,4.021609 6.1625,4.021609 1.8519,0 13.1647,10.339026 18.1018,16.543573 2.8257,3.551035 5.7257,6.456427 6.4445,6.456427 1.4769,0 2.8096,2.723784 1.9853,4.057535 -0.2981,0.482378 0.3754,1.450016 1.4968,2.150305 1.1213,0.70029 2.0388,2.03949 2.0388,2.976 0,0.93651 0.7875,2.29077 1.75,3.00946 0.9625,0.71868 3.7207,5.1317 6.1294,9.8067 2.4086,4.675 5.2211,9.573191 6.25,10.884861 1.0288,1.31167 1.8735,3.11167 1.8772,4 0,0.88833 0.9006,2.96514 1.9934,4.61514 1.0927,1.65 1.9898,4.13749 1.9934,5.52776 0,1.39027 0.9066,3.29836 2.0066,4.24021 1.5479,1.32537 2,2.94994 2,7.187056 0,4.56016 0.3553,5.66475 2.127,6.61298 1.847,0.98846 2.054,1.75606 1.5716,5.82886 -0.488,4.12045 -0.2943,4.80671 1.5936,5.64681 1.2855,0.57199 2.4111,2.25997 2.8009,4.20016 0.3585,1.78411 1.1899,3.89221 1.8475,4.68467 1.7093,2.05953 0.9464,7.98188 -1.0775,8.36484 -0.9003,0.17035 -2.5878,-0.89915 -3.75,-2.37667 z"
       id="path2938" />
    <path
       sodipodi:nodetypes="csssssssssssssssssssssssssssssssssssssssssssssscccssssssssssssssssssssssssccssssssssssssssssssssssssssssssssssssssssssssssssssssssssssssssssssssssssssssssssssssssssssssssc"
       style="fill:#161413"
       d="m -1071.6864,307.82203 c -2.2172,-2.44999 -5.219,-2.56435 -7.7272,-0.29439 -1.4956,1.35346 -2.2632,1.46925 -3.7178,0.56081 -1.1194,-0.69905 -3.9439,-0.92697 -7.254,-0.58533 -5.1811,0.53473 -5.5418,0.4157 -8.1567,-2.69195 -2.8626,-3.40195 -8.8849,-6.98914 -11.7337,-6.98914 -3.3381,0 -8.9106,-3.01021 -8.9106,-4.81342 0,-2.25301 -1.8904,-4.18658 -4.093,-4.18658 -0.9312,0 -1.9521,-0.675 -2.2687,-1.5 -0.3165,-0.825 -1.1173,-1.5 -1.7793,-1.5 -2.4493,0 -8.8053,-3.53941 -8.3987,-4.67689 0.821,-2.29644 -2.3728,-3.79461 -5.5405,-2.59895 -2.8119,1.06135 -2.9198,0.99402 -2.9198,-1.82081 0,-1.62105 -0.8356,-3.63837 -1.8761,-4.52923 -1.0318,-0.88346 -1.6755,-2.37299 -1.4304,-3.31006 0.5769,-2.2061 -2.138,-4.44261 -4.6085,-3.79654 -1.3659,0.35718 -2.0861,-0.11723 -2.4774,-1.63198 -0.3035,-1.17455 -1.8319,-2.85482 -3.3966,-3.73394 -2.4884,-1.39817 -2.7908,-2.06144 -2.4133,-5.29462 0.528,-4.52326 -1.4752,-7.07943 -7.6306,-9.73657 -5.6442,-2.43644 -11.7239,-2.36712 -19.1963,0.21887 -4.6185,1.59831 -7.2113,1.92779 -11.0336,1.40209 -3.3814,-0.46507 -5.4716,-0.29274 -6.4668,0.53317 -1.2072,1.00187 -1.4704,0.87618 -1.4704,-0.7021 0,-2.72142 -1.9377,-4.32244 -5.2314,-4.32244 -3.4849,0 -4.4694,-2.1614 -2.3578,-5.17613 1.988,-2.83828 2.0397,-6.84599 0.121,-9.38274 -0.8075,-1.06762 -1.4825,-2.86762 -1.5,-4 -0.017,-1.13238 -0.6925,-2.93238 -1.5,-4 -0.8075,-1.06762 -1.4825,-3.12353 -1.5,-4.56869 -0.017,-1.44515 -0.7068,-3.18775 -1.5318,-3.87244 -0.825,-0.68469 -1.5,-2.74243 -1.5,-4.57275 0,-2.01894 -0.6331,-3.68213 -1.6095,-4.22857 -1.4793,-0.82784 -1.4793,-0.95065 0,-1.5183 2.5551,-0.98048 2.2445,-10.27016 -0.3905,-11.68038 -1.4203,-0.76008 -2,-2.09382 -2,-4.60093 0,-1.9418 -0.5366,-4.51347 -1.1925,-5.71481 -1.7469,-3.19993 -6.5131,-17.62033 -5.6468,-17.08495 0.4064,0.25119 1.2273,-0.4559 1.8243,-1.5713 0.5969,-1.11541 1.4346,-2.02801 1.8616,-2.02801 1.8258,0 5.1534,4.28393 5.1534,6.63458 0,1.40618 0.9378,3.87376 2.0841,5.48353 1.645,2.31029 1.944,3.75603 1.419,6.86308 -0.4533,2.6836 -0.1901,4.82452 0.8272,6.72753 3.0667,5.73683 5.6697,16.72765 5.6697,23.94014 0,2.1963 0.9606,4.37566 2.9047,6.5899 1.9591,2.23129 3.141,4.92846 3.6302,8.28479 0.399,2.73705 1.5045,6.51773 2.4568,8.40151 l 1.7313,3.42506 1.4067,-2.92506 c 1.2205,-2.53796 1.9997,-2.948 5.8885,-3.09837 2.4649,-0.0953 4.9998,-0.20782 5.633,-0.25 0.6332,-0.0422 2.064,-1.62377 3.1797,-3.51464 2.6992,-4.57484 7.0581,-6.76579 11.8986,-5.98067 6.1169,0.99214 10.727,3.62272 11.1118,6.34043 0.1878,1.32607 2.7753,5.42341 5.75,9.1052 2.9748,3.68179 5.4087,7.66656 5.4087,8.85503 0,1.27516 2.2543,4.45154 5.5,7.74945 3.025,3.07371 5.5,6.14432 5.5,6.82355 0,0.67924 0.9,2.04947 2,3.04496 1.274,1.153 2.0131,3.11488 2.0362,5.40499 0.033,3.22512 0.4683,3.80079 4.2354,5.59501 2.8307,1.34822 4.3811,2.81273 4.7574,4.49389 0.4701,2.1001 1.3163,2.60232 5.3592,3.18063 2.6406,0.37771 5.5813,1.39297 6.5351,2.25612 0.9538,0.86315 2.7412,1.56936 3.9721,1.56936 1.2309,0 3.6705,1.03506 5.4213,2.30013 3.276,2.36711 9.1573,4.69987 11.8493,4.69987 0.8382,0 2.3192,0.87866 3.2911,1.95258 1.2867,1.42183 2.5488,1.79622 4.6433,1.37734 1.8204,-0.36408 3.7853,0.0204 5.3527,1.04742 1.4848,0.97289 4.5929,1.62856 7.7617,1.6374 7.224,0.0202 10.202,1.66755 10.6067,5.86748 0.2302,2.3888 -0.3164,4.0157 -1.9243,5.7272 -2.7365,2.91287 -4.0424,2.9926 -6.3972,0.39058 z m -159.8464,-153.17396 c -0.992,-0.55515 -2.0675,-0.74551 -2.39,-0.42302 -1.0874,1.08744 -5.1063,-6.03943 -6.5731,-11.65639 -1.3789,-5.28041 -1.3564,-5.60075 0.4268,-6.06707 1.377,-0.36008 1.8827,-1.40385 1.8827,-3.88594 0,-1.86649 -0.4983,-3.89193 -1.1074,-4.50097 -0.609,-0.60904 -1.4097,-2.61154 -1.7793,-4.45 -0.4083,-2.03127 -1.5151,-3.71783 -2.8211,-4.29897 -1.8879,-0.8401 -2.0816,-1.52636 -1.5936,-5.64681 0.4823,-4.0728 0.2754,-4.8404 -1.5716,-5.82886 -1.7717,-0.94823 -2.127,-2.05282 -2.127,-6.61298 0,-4.237116 -0.4521,-5.861686 -2,-7.187056 -1.1,-0.94185 -2.003,-2.84994 -2.0066,-4.24021 0,-1.39027 -0.9007,-3.87776 -1.9934,-5.52776 -1.0928,-1.65 -1.9898,-3.72681 -1.9934,-4.61514 0,-0.88833 -0.8484,-2.68833 -1.8772,-4 -1.0289,-1.31167 -3.8414,-6.209861 -6.25,-10.884861 -2.4087,-4.675 -5.1669,-9.08802 -6.1294,-9.8067 -0.9635,-0.7194 -1.75,-2.60916 -1.75,-4.20455 0,-1.7577 -0.9836,-3.881456 -2.5,-5.397841 -1.375,-1.375 -2.5,-3.537208 -2.5,-4.804908 0,-1.267699 -0.9,-2.866967 -2,-3.553928 -1.1,-0.686961 -2,-2.318453 -2,-3.625537 0,-1.431467 -0.9942,-3.027911 -2.5,-4.014579 -1.375,-0.900935 -2.5,-2.475935 -2.5,-3.5 0,-1.024065 -1.125,-2.599065 -2.5,-3.5 -1.375,-0.900935 -2.5,-2.475935 -2.5,-3.5 0,-1.024065 -1.125,-2.599065 -2.5,-3.5 -1.375,-0.900935 -2.5,-2.555316 -2.5,-3.676404 0,-2.128397 -10.9168,-13.441337 -14.5,-15.026183 -1.1,-0.486527 -2.7875,-1.335669 -3.75,-1.886982 -0.9625,-0.551314 -2.5375,-1.385845 -3.5,-1.854516 -0.9625,-0.46867 -1.8893,-1.783974 -2.0595,-2.922898 -0.1702,-1.138924 -1.5202,-2.581224 -3,-3.20511 -3.7676,-1.58844 -9.2799,-4.709255 -10.5353,-5.964594 -0.5804,-0.580398 -2.0118,-1.05527 -3.1809,-1.05527 -1.1691,0 -3.1826,-1.125 -4.4743,-2.5 -1.2918,-1.375 -2.8327,-2.514072 -3.4243,-2.531272 -0.5917,-0.0172 -3.3257,-1.167207 -6.0757,-2.555572 -6.978,-3.522889 -13.8864,-5.236652 -18.8529,-4.676848 -3.0958,0.348935 -4.5823,0.04676 -5.5589,-1.130001 -0.7332,-0.883469 -2.767,-1.606307 -4.5195,-1.606307 -1.7526,0 -4.06,-0.646085 -5.1276,-1.435745 -1.3201,-0.976433 -3.2963,-1.253472 -6.1772,-0.865987 -2.7773,0.373551 -4.7795,0.118705 -5.8143,-0.740034 -0.9213,-0.764683 -3.5842,-1.218258 -6.3983,-1.089852 -3.3363,0.152232 -5.3175,-0.277411 -6.4357,-1.39565 -1.8917,-1.891613 -2.145,-7.543403 -0.4156,-9.272732 1.3547,-1.354775 10.4044,-1.649093 11.1985,-0.364206 0.2841,0.459687 2.9526,0.633776 5.9301,0.386863 3.2983,-0.273523 5.6762,-0.02381 6.0859,0.639112 0.42,0.679497 2.3592,0.856849 5.1646,0.472325 3.6934,-0.506235 4.8859,-0.248672 6.7065,1.448509 1.6251,1.514924 4.2102,2.25479 9.7144,2.780344 4.125,0.393865 8.3876,1.328328 9.4725,2.076585 1.0849,0.748258 3.1363,1.360468 4.5588,1.360468 1.4225,0 3.4599,0.660688 4.5275,1.468197 1.0677,0.807508 3.3252,1.482508 5.0169,1.5 1.9584,0.02025 3.9288,0.939905 5.4243,2.531803 1.2917,1.375 3.0802,2.5 3.9743,2.5 0.8941,0 2.0532,0.425229 2.5757,0.944953 0.5225,0.519724 3.65,2.381975 6.95,4.138336 5.8967,3.138416 19.9023,13.140571 21.0891,15.060926 0.3328,0.538533 1.6985,1.394849 3.0348,1.902923 1.3364,0.508075 2.7741,1.854679 3.195,2.992453 0.4209,1.137775 1.8673,2.618123 3.2143,3.289662 1.347,0.671539 2.6127,2.070886 2.8128,3.109659 0.2,1.038773 2.5665,4.72707 5.2588,8.196214 2.6924,3.469145 4.8952,6.925692 4.8952,7.681217 0,0.755525 0.9,2.188171 2,3.183657 1.1,0.995486 2.0069,2.752731 2.0153,3.904988 0.018,2.518616 0.83,3.732197 3.4771,5.199247 1.0959,0.607329 2.4211,2.632329 2.9449,4.5 0.5238,1.867671 1.7647,3.983782 2.7575,4.702469 1.0048,0.727325 1.8052,2.55744 1.8052,4.127555 0,1.551468 0.675,3.381052 1.5,4.065741 0.8546,0.709313 1.5,2.889617 1.5,5.06788 0,3.18592 0.4582,4.04154 2.75,5.13451 1.9946,0.9513 2.8339,2.1735 3.0555,4.44985 0.1681,1.72608 1.1806,3.93019 2.25,4.89803 1.3243,1.19847 1.9445,3.06878 1.9445,5.86417 0,3.021461 0.5277,4.434031 2,5.353491 1.5005,0.93709 2,2.33202 2,5.58556 0,3.06654 0.5857,4.8666 2,6.14651 1.2953,1.17225 2,3.07997 2,5.41444 0,2.52146 0.6009,3.97975 2,4.85349 2.2783,1.42282 2.7713,7.060686 0.7907,9.041336 -0.9457,0.94569 -0.7277,1.54655 1,2.7567 1.6145,1.13087 2.2093,2.56205 2.2093,5.31642 0,2.72728 0.6909,4.41811 2.5,6.11761 2.1455,2.01567 2.5,3.22805 2.5,8.55187 0,4.29404 0.4616,6.58639 1.5,7.44813 0.9535,0.79139 1.5,3.00023 1.5,6.06343 0,2.65019 0.45,5.09665 1,5.43657 1.171,0.72374 1.3583,7.16051 0.2286,7.85869 -0.4242,0.2622 -1.583,0.0225 -2.575,-0.53265 z"
       id="path2936" />
  </g>
  <g
     id="g3126"
     transform="matrix(0.93305111,0,0,0.95743865,-9.098402,29.859657)"
     inkscape:export-filename="/home/ingo/code/sasfit/trunk/from_cvs/doc/images/sasfit_icon_16.png"
     inkscape:export-xdpi="3.5999999"
     inkscape:export-ydpi="3.5999999">
    <path
       style="fill:#fcfd7d"
       d="m -959.875,-22.34375 c -9.41147,7.059182 -26.51761,3.559027 -29.24047,18.8765016 -2.73248,16.5393364 16.50008,19.5270204 28.18685,22.2361254 30.74155,10.115876 60.1328,28.535586 76.5238,57.220569 10.74031,15.608975 16.27871,33.915774 23.7265,51.183974 13.19893,33.44777 20.58563,68.69925 28.26688,103.69791 3.16893,13.87249 11.48135,30.51014 27.55717,31.45709 13.25926,0.53749 21.84801,-11.80867 24.16958,-23.55527 1.7138,-8.18504 13.91109,-10.41721 8.05969,-20.27315 12.78824,-0.0313 20.99736,-18.07794 9.86012,-26.28995 -10.81138,-9.10412 -29.22391,-0.51002 -28.86543,13.69983 -1.71593,5.59771 -10.91111,7.00009 -13.02594,13.74637 -12.17129,-50.62133 -21.29146,-103.18614 -48.11124,-148.675772 -12.65325,-22.280428 -28.37272,-43.532314 -49.56136,-58.36649 -5.32633,-11.70686351 -16.54987,-15.4645823 -28.26732,-15.5070184 -2.66018,-12.9873466 -18.62978,-16.3868466 -29.27883,-19.4507196 z"
       id="path3040"
       inkscape:export-filename="/home/ingo/code/sasfit/trunk/from_cvs/doc/images/sasfit_icon_16.png"
       inkscape:export-xdpi="3.5999999"
       inkscape:export-ydpi="3.5999999" />
    <path
       style="fill:#7bf9fb"
       d="m -796.6875,156 c -9.19174,2.6277 -16.85798,7.12999 -25.64885,11.01733 -8.17068,9.94944 -16.68098,18.82948 -26.67785,27.06529 -7.80128,8.16271 -9.06455,19.19969 -20.84399,22.55228 -7.39832,8.78378 -19.09749,8.13922 -27.7136,1.77471 -22.61452,-12.74912 -43.53525,-28.93773 -68.05585,-37.9935 -9.66837,-5.71035 -25.42037,-4.45003 -23.58918,9.98502 -1.51524,10.16665 6.36895,19.23065 15.99208,20.56268 -0.31339,13.5296 15.2399,14.06401 21.27969,23.00825 5.63611,7.28277 21.65378,-8.3132 16.67082,3.63891 -3.83019,12.71642 13.13627,24.97655 23.17535,15.08035 6.37526,-8.99041 18.71183,3.96972 28.76623,1.48747 5.65795,10.00975 26.47045,12.95033 29.23913,-2.03674 3.81386,-10.49113 11.06877,-20.21958 20.25319,-27.1978 6.99238,-10.55696 15.33159,-19.92136 24.49087,-28.63906 5.13091,-6.38974 8.60794,-12.41761 17.2788,-8.20061 8.43229,6.7217 25.15997,20.24305 35.65248,6.53399 6.3869,-13.40934 -6.44671,-25.02995 -16.27079,-32.12012 -7.70201,-2.77642 -15.36962,-7.035 -23.99853,-6.51845 z m 82.78125,88.90625 c -7.05012,3.473 -12.10253,8.91095 -19.89004,11.13833 -9.64184,7.81147 0.71171,18.40689 10.25254,17.92506 10.86994,1.86256 26.14508,-4.59888 25.22563,-17.3852 -0.91457,-7.36967 -8.1636,-13.11137 -15.58813,-11.67819 z"
       id="path3042"
       inkscape:export-filename="/home/ingo/code/sasfit/trunk/from_cvs/doc/images/sasfit_icon_16.png"
       inkscape:export-xdpi="3.5999999"
       inkscape:export-ydpi="3.5999999" />
    <path
       style="fill:#f77bfb"
       d="m -975.4375,70.65625 c -17.65727,0.410903 -17.86159,30.67184 0.23912,30.89353 40.78585,12.14381 76.42405,42.17093 92.39332,81.99455 13.08307,26.09984 20.53738,55.38473 37.94828,79.0825 9.71873,10.7103 28.19169,9.53943 36.02655,-2.74553 6.21162,-10.46091 10.37008,-21.98181 17.72593,-31.84025 5.20531,-8.59125 8.40257,-25.37182 21.18247,-15.26142 20.47553,1.8335 19.89811,-30.60706 0.79774,-32.55696 -15.69404,-7.0346 -28.97602,6.78528 -33.71966,18.21483 -12.31276,6.91684 -16.06663,22.12246 -23.58856,33.20763 -5.53889,2.47237 -10.2305,-17.65043 -14.47552,-24.82558 -10.88694,-27.78112 -21.9328,-56.14941 -41.61925,-79.06948 -22.62207,-27.72401 -54.12633,-49.262689 -89.25982,-57.009839 l -1.82127,-0.103032 -1.82933,0.01905 z m 271.03125,176.8125 c -16.86797,-1.36504 -21.84657,27.57361 -3.58846,29.40688 15.17238,1.17398 23.37612,17.25344 38.29994,20.35545 11.85003,5.50515 31.08291,7.81491 37.12677,-6.94248 2.84309,-12.61436 -12.19375,-20.1924 -22.93718,-17.46012 -16.04956,-2.70181 -23.48431,-21.44143 -39.75925,-24.65899 -3.00203,-0.61911 -6.08186,-0.81964 -9.14182,-0.70074 z"
       id="path3044"
       inkscape:export-filename="/home/ingo/code/sasfit/trunk/from_cvs/doc/images/sasfit_icon_16.png"
       inkscape:export-xdpi="3.5999999"
       inkscape:export-ydpi="3.5999999" />
    <path
       style="fill:#1619f5"
       d="m -824.96875,112.9375 c -19.3399,0.23146 -36.76854,10.26656 -54.54164,16.70014 -12.49087,11.01811 -28.95557,14.12513 -45.09498,18.79004 -18.86909,4.34544 -38.20583,5.96319 -57.30088,8.97857 -10.06659,6.83861 -8.23272,23.00617 -2.70359,32.07082 10.31134,9.87767 20.91668,-3.33882 32.18016,-0.91499 14.56901,4.33593 26.55581,-8.42171 41.18003,-10.52289 12.7345,-3.73499 23.8475,-10.19905 34.99758,-17.16561 13.24973,-2.27403 25.67203,-8.45309 35.47082,-17.77983 15.5348,-3.78014 32.10263,2.3842 40.51291,16.18667 6.47449,11.61337 20.40731,21.44324 26.25903,30.18478 -6.23367,17.59653 7.83921,32.06028 9.80383,47.7445 7.52849,14.02978 11.29176,37.43656 33.46011,36.02056 14.42634,2.09344 22.37161,-11.55045 36.2186,-4.36213 22.8645,-5.41252 5.47541,-34.18663 -12.6349,-28.45423 -14.86323,4.51411 -30.74681,2.42938 -30.53725,-15.80953 -8.14098,-12.831 -9.14083,-30.95843 -17.32214,-45.41378 -6.39932,-13.48833 -12.1036,-29.70374 -24.14731,-41.18584 -10.07477,-14.83046 -27.63421,-25.27606 -45.80038,-25.06725 z m 159.4375,151.375 c -16.77028,0.0878 -16.46486,30.00661 0.99071,28.3461 17.19935,1.43415 22.15627,-23.93892 4.37556,-27.62571 l -2.6457,-0.5863 -2.72057,-0.13409 z m 47.59375,17.25 c -15.89405,0.61068 -15.83238,27.50167 -0.0933,28.73384 18.26687,3.31005 24.96426,-25.14091 5.43482,-28.23698 l -2.64866,-0.46051 -2.69285,-0.0364 z"
       id="path3046"
       inkscape:export-filename="/home/ingo/code/sasfit/trunk/from_cvs/doc/images/sasfit_icon_16.png"
       inkscape:export-xdpi="3.5999999"
       inkscape:export-ydpi="3.5999999" />
    <path
       style="fill:#14f314"
       d="m -980.0625,34.40625 c -19.09247,9.036437 -10.25385,26.086673 14.52255,30.543904 19.88158,0.244654 39.62966,3.534052 59.54588,2.621177 28.23052,0.204729 60.49033,2.413134 80.2317,25.493467 20.75367,22.945892 29.86491,53.289642 45.82721,79.317902 4.31411,9.29347 4.71395,26.43884 19.55984,22.87949 14.93649,-4.96141 9.47284,-24.25181 3.73977,-34.52137 -13.39642,-38.41154 -29.94723,-78.989581 -63.57121,-104.121004 -18.93176,-13.173933 -42.43984,-18.1748 -65.19646,-16.440333 -29.05254,-5.671144 -58.84,-3.86359 -88.27499,-5.494502 -2.12844,-0.08481 -4.25659,-0.177062 -6.38429,-0.278731 z m 234.9375,190.8125 c -14.2214,1.74559 -23.58256,22.47321 -4.57481,25.12813 7.13301,12.99113 23.50242,15.22657 36.56453,10.43368 13.45134,-4.70954 16.73582,12.26613 26.63569,16.47457 7.17912,17.76517 41.57333,5.33994 28.19177,-12.16828 -11.58402,-6.45302 -22.59922,-12.59665 -29.45831,-24.51528 -9.38698,-10.75107 -26.07721,-15.4717 -39.07141,-8.44798 -7.39484,3.99144 -9.30889,-9.59264 -18.28746,-6.90484 z"
       id="path3048"
       sodipodi:nodetypes="ccccccccccccccccccc"
       inkscape:export-filename="/home/ingo/code/sasfit/trunk/from_cvs/doc/images/sasfit_icon_16.png"
       inkscape:export-xdpi="3.5999999"
       inkscape:export-ydpi="3.5999999" />
    <path
       style="fill:#f31412"
       d="m -974.1875,-36.4375 c -15.55516,0.261964 -21.59723,27.9840815 -3.86843,29.916444 24.32774,2.0525766 48.69275,4.5018766 72.85222,8.4190346 30.85814,4.4842496 60.18578,21.2142524 76.51453,48.2712024 15.16342,22.528935 23.24875,48.764608 35.61211,72.680959 1.52487,9.79003 20.05762,6.09604 9.93867,13.36691 -8.86098,17.88152 20.78317,28.84411 24.59214,9.30282 4.14602,-11.39861 -17.02696,-17.57713 -16.22881,-16.29944 13.35773,-9.46435 2.53647,-24.53252 -1.1475,-35.478908 -6.31447,-27.388832 -20.68361,-52.647839 -37.16808,-75.249689 -22.12509,-26.7091114 -55.0722,-41.710944 -88.83921,-46.911768 -23.82194,-4.716956 -48.18926,-5.301399 -72.25764,-8.017565 z m 252.59375,255.125 c -11.18865,3.67925 -39.70135,0.97004 -34.06779,17.35598 8.43717,22.15754 31.91531,11.03808 48.49856,14.2423 6.06743,3.50227 7.85628,14.50398 15.28669,17.64757 2.98431,16.13534 31.96036,11.48949 25.59791,-5.81243 -6.23376,-7.25584 -12.97605,-9.80564 -17.22693,-19.08397 -9.35574,-4.58938 -8.70932,-24.09604 -24.83117,-23.88937 -4.398,-0.35148 -8.83836,-0.56606 -13.25727,-0.46008 z"
       id="path3050"
       inkscape:export-filename="/home/ingo/code/sasfit/trunk/from_cvs/doc/images/sasfit_icon_16.png"
       inkscape:export-xdpi="3.5999999"
       inkscape:export-ydpi="3.5999999" />
    <path
       style="fill:#161413"
       d="m -947.96875,-75.5625 c -11.14181,0.852142 -15.81714,14.961662 -10.34375,23.75 2.97414,6.258401 10.06593,8.370445 16.5,8.21875 22.01815,4.026458 45.69411,5.97927 64.23818,19.697214 29.63077,14.6060045 46.52478,44.777587 61.05076,72.945574 11.39073,18.681705 19.05741,39.524037 24.86731,60.482212 4.83965,12.60046 0.0665,29.47973 11.40625,39.28125 -0.17123,15.58403 12.81441,28.75086 9.375,44.53125 9.94702,12.67931 3.11209,32.75267 16.375,43.5 6.43,6.17354 15.97144,6.73159 24.09514,4.03871 6.91632,-1.87455 17.15424,-5.31078 21.65486,2.61754 10.27861,18.70057 27.63667,31.82358 45.0625,43.28125 16.31673,12.00599 37.29129,19.13769 57.65625,16.75 8.04347,-2.03465 14.62612,-10.79696 10.875,-19 -4.30254,-10.60533 -15.9854,-16.71019 -27.14806,-16.24681 -14.44408,-4.58023 -29.70011,-8.82741 -41.9335,-17.77565 -12.2847,-18.0839 -23.38724,-37.18494 -37.23094,-54.04004 -7.64733,-6.50724 -18.13106,-0.79977 -25.65625,2.9375 -3.77326,2.03821 -10.95948,5.25215 -12.8125,-0.6875 -4.30379,-13.74648 -6.3258,-28.11 -9.8125,-42.125 -1.90563,-8.58984 -8.25659,-15.4284 -8.57648,-24.46181 -3.08877,-17.49963 -8.81083,-34.399336 -14.04617,-51.270901 -5.09144,-25.315686 -18.80812,-47.89354 -29.0961,-71.267289 -14.2892,-28.616536 -36.8059,-53.557308 -66.42794,-66.598918 -24.75158,-12.154376 -52.49824,-18.102672 -80.07206,-18.557332 z"
       id="path3052"
       inkscape:export-filename="/home/ingo/code/sasfit/trunk/from_cvs/doc/images/sasfit_icon_16.png"
       inkscape:export-xdpi="3.5999999"
       inkscape:export-ydpi="3.5999999" />
    <text
       xml:space="preserve"
       style="font-size:25.39235878px;font-style:normal;font-variant:normal;font-weight:normal;font-stretch:normal;fill:#000000;fill-opacity:1;stroke:none;font-family:Bitstream Vera Sans Mono;-inkscape-font-specification:Bitstream Vera Sans Mono"
       x="-860.0083"
       y="-196.49435"
       id="text3174"
       transform="scale(1.0129845,0.98718198)"><tspan
         sodipodi:role="line"
         id="tspan3176"
         x="-860.0083"
         y="-196.49435">icon 16x16</tspan></text>
    <text
       xml:space="preserve"
       style="font-size:25.39235878px;font-style:normal;font-variant:normal;font-weight:normal;font-stretch:normal;fill:#000000;fill-opacity:1;stroke:none;font-family:Bitstream Vera Sans Mono;-inkscape-font-specification:Bitstream Vera Sans Mono"
       x="-1389.993"
       y="-175.9841"
       id="text3178"
       transform="scale(1.0129845,0.98718198)"><tspan
         sodipodi:role="line"
         id="tspan3180"
         x="-1389.993"
         y="-175.9841">source</tspan></text>
  </g>
  <g
     id="g3182"
     transform="translate(-517.98305,0)">
    <text
       xml:space="preserve"
       style="font-size:24px;font-style:normal;font-variant:normal;font-weight:normal;font-stretch:normal;fill:#000000;fill-opacity:1;stroke:none;font-family:Bitstream Vera Sans Mono;-inkscape-font-specification:Bitstream Vera Sans Mono"
       x="-1550.8475"
       y="-146.55508"
       id="text3219"><tspan
         sodipodi:role="line"
         id="tspan3221"
         x="-1550.8475"
         y="-146.55508">logo, mediawiki</tspan></text>
    <g
       id="g3242"
       inkscape:export-filename="/home/ingo/code/sasfit/trunk/from_cvs/doc/images/sasfit_icon_wiki.png"
       inkscape:export-xdpi="23.717203"
       inkscape:export-ydpi="23.717203">
      <g
         transform="translate(-136.47458,-1.3698207e-6)"
         id="g3223">
        <path
           style="fill:#161413"
           d="m -1408.8438,-52.78125 c -9.4388,1.340201 -8.6133,10.748011 -0.7187,13.90625 7.8946,3.158239 18.2609,3.014796 29.8125,6.21875 11.5515,3.203954 26.2648,5.813191 39.0938,13.59375 12.829,7.780559 28.8633,16.0592892 38.875,27.78125 10.0117,11.721961 17.5657,24.252861 24.4235,38.953105 6.8578,14.700243 18.1761,31.844292 23.5139,45.203145 5.3378,13.35885 6.9355,23.7773 11.625,33.1875 4.6895,9.4102 -0.2715,23.49916 4.9063,27.78125 5.1778,4.28208 9.0742,-1.83189 6.875,3.40625 -2.1992,5.23813 1.8966,22.68712 5.0625,29.84375 3.1659,7.15663 0.6654,7.77514 1.1875,16.28125 0.5222,8.50611 9.5933,22.58917 8.4375,33.625 -1.1557,11.03582 13.1752,12.08336 21.5312,11.46875 8.356,-0.61461 17.566,-6.66481 24.8126,-2.15625 7.2466,4.50855 6.7958,13.49696 13.5,17.21875 6.7042,3.72178 9.5024,16.85193 16.8437,17.21875 7.3412,0.36682 6.9883,4.73369 11.8853,8.36105 4.8969,3.62735 11.6654,4.97347 18.9584,11.76395 7.2929,6.79048 26.9404,7.77791 34.2813,8.75 7.3408,0.97209 4.4732,1.77371 8.0937,-0.71875 3.6205,-2.49246 8.2218,-6.94821 0.6876,-11.5 -7.5342,-4.55179 -22.5091,-5.43939 -33.6431,-11.22551 -11.134,-5.78612 -27.425,-4.46402 -35.0757,-18.27449 -7.6508,-13.81047 -20.5357,-35.61636 -28.7642,-40.61068 -8.2285,-4.99432 -12.7656,-3.47283 -27.193,0.003 -14.4273,3.47557 -16.344,-6.09133 -21.074,-18.64206 -4.73,-12.55073 -4.4773,-30.67576 -9.4516,-40.53099 -4.9743,-9.85523 -7.2912,-19.43253 -8.2424,-27.92443 -0.9513,-8.4919 -8.482,-20.04426 -11.2436,-33.88833 -2.7617,-13.844069 -8.2964,-33.987995 -14.8437,-48.9375 -6.5474,-14.949505 -12.9682,-27.57552 -22.5313,-42.4375 -9.5631,-14.86198005 -23.1785,-30.723046 -39.2799,-40.851276 -16.1015,-10.12823 -35.4707,-18.109085 -51.4136,-21.526714 -15.9429,-3.417629 -31.4928,-6.680961 -40.9315,-5.34076 z"
           id="path3196"
           sodipodi:nodetypes="cssssssssssssssssssssssszzsssssssss" />
        <path
           style="fill:#fcfd7d"
           d="m -1418.8438,0.5 c -3.015,0.25574377 -5.4135,8.9324285 -9.5312,7.5 -4.1177,-1.4324285 -12.8066,-0.8983762 -13.125,4.5625 -0.3184,5.460876 2.3683,7.698184 6.875,8.90625 3.9975,1.07157 43.1109,15.411788 56.9062,23.84375 13.7952,8.431962 20.5215,13.88954 27.5372,22.737573 7.0157,8.848033 11.8512,13.057651 18.4787,27.436034 6.6274,14.378383 16.3979,36.846723 23.4217,58.951393 7.0237,22.10466 15.6487,53.52024 19.4062,72.71875 3.7574,19.19851 7.1114,31.46418 15.4375,39.03125 8.326,7.56707 16.1263,3.41398 20.125,-4.21875 3.9987,-7.63273 9.1328,-18.16876 13.0625,-23.25 3.9296,-5.08124 -5.1106,-10.73469 -11.1562,-7.03125 -6.0456,3.70344 -5.781,6.65156 -6.0652,11.74414 -0.2843,5.09258 -3.7174,20.69985 -9.1224,10.06836 -5.4051,-10.63149 -10.3939,-31.86507 -16.3124,-56.96875 -5.9186,-25.10368 -20.4051,-71.82439 -29.0626,-90.875 -8.6575,-19.050612 -6.5166,-14.295525 -14.6417,-26.713634 -8.1251,-12.41811 -29.0076,-36.263874 -38.952,-43.192616 -9.9444,-6.928742 -7.2954,-3.75788 -8.6563,-10.0625 -1.361,-6.30462 -12.7227,-4.613216 -18,-5.53125 -5.2774,-0.918034 -6.9147,-4.110206 -7.6874,-8.46875 -0.7728,-4.3585443 -7.3873,-5.9326674 -10,-4.25 -2.6127,1.6826674 -1.1814,6.071236 -3.5313,2.96875 -2.35,-3.1024865 0.8134,-6.4586672 -1.4063,-8.125 -2.2197,-1.6663328 -0.985,-2.03699377 -4,-1.78125 z m 184.3438,211 c -6.2405,0.33079 -12.9422,8.55809 -8.9375,12.3125 4.0047,3.75441 12.0416,3.47168 15.8125,-1.46875 3.7709,-4.94043 -0.6345,-11.17454 -6.875,-10.84375 z"
           id="path3184"
           sodipodi:nodetypes="czzzzzzzzzzzzzzzzzzzzzzzzzczzz" />
        <path
           style="fill:#7bf9fb"
           d="m -1260.6562,191.84375 c 4.8072,3.17582 10.8282,5.1386 14.3437,-0.0937 3.5155,-5.23231 -2.3295,-13.41594 -6.5625,-12.65625 -8.3385,1.33593 -11.312,-1.81537 -7.7812,12.74995 z m 18.9374,-9.125 c -4.0723,0.64764 -3.0802,4.12953 -2.7187,10.375 0.3615,6.24546 12.5172,16.58351 19.2813,13.8125 6.7641,-2.77101 -0.5315,-10.38008 -1.4376,-13.65625 -0.9061,-3.27617 -4.0817,-2.24294 -6.0624,-4.71875 -1.9807,-2.47581 -4.9903,-6.46015 -9.0626,-5.8125 z m -29.7812,2.4375 c -4.6179,1.01724 -11.2005,8.36157 -14.875,14.40625 -3.6746,6.04468 -10.7312,9.89495 -16.0938,15.21875 -5.011,19.68804 -12.652,16.55983 -25.9374,25.40625 -5.8464,5.48662 -10.6679,12.48824 -28.1445,2.67779 -17.4767,-9.81045 -74.9313,-41.77995 -78.068,-42.26175 -3.1367,-0.4818 -7.1209,-0.33229 -6.5688,3.95896 0.5521,4.29125 1.1385,10.65686 6.1119,11.78774 4.9734,1.13088 9.2113,0.94936 9.6381,4.61851 0.4267,3.66914 3.1353,12.8503 8,11.28125 4.8647,-1.56905 3.5586,-5.96475 6.3125,-4.4375 2.7539,1.52725 7.0381,1.44223 2.125,3.125 -4.9131,1.68276 -0.2612,13.0553 4.5938,11.15625 4.855,-1.89905 -1.8199,-9.60279 5.9062,-6.5625 7.726,3.04028 34.8108,22.34085 46.2178,24.73047 11.4069,2.38962 16.8677,-2.93085 17.626,-0.32422 0.7583,2.60662 5.9112,12.00148 10.0312,8.40625 4.1199,-3.59524 -2.6758,-7.92764 0.1562,-9.5625 4.6737,-12.91481 17.8709,-17.99853 24.8438,-26.09375 4.8095,-6.50231 16.8694,-19.65759 23.25,-26.21875 6.3806,-6.56117 11.0978,-13.43486 9.7188,-18.25 -1.3791,-4.81515 -0.2259,-4.07975 -4.8438,-3.0625 z m -111.6562,65.28125 c -4.275,0.11579 -6.6736,10.0613 -0.5938,12.0625 6.0798,2.0012 9.8936,-8.79883 5.8125,-10.90625 -4.0811,-2.10742 -0.9437,-1.27204 -5.2187,-1.15625 z m 210.5312,17.25 c -3.9943,0.42884 -5.6628,8.73676 -12.375,8.28125 -6.7122,-0.45551 -6.5795,3.93176 0.3125,4.40625 6.8919,0.47449 17.2525,-2.59502 18.0625,-7.84375 0.8099,-5.24874 -2.0058,-5.27259 -6,-4.84375 z"
           id="path3186"
           sodipodi:nodetypes="czccczzzzzczcczzzzzzzzzzzzzcczzzczzzczzzz" />
        <path
           style="fill:#f77bfb"
           d="m -1435.0938,93.4375 c -4.3685,0.649488 -11.0224,5.536717 -5.6874,9.30677 5.335,3.77005 12.8497,6.2923 20.8496,10.59102 7.9999,4.29872 33.3398,17.50322 48.5566,31.07096 15.2167,13.56774 22.9131,26.54552 32.2188,43.84375 9.3057,17.29823 18.9673,43.46478 26,58.125 7.0326,14.66022 8.3012,23.50014 18.4374,29.28125 10.1362,5.78111 21.8887,-7.09847 23.0938,-14.78125 1.2051,-7.68278 5.139,-7.85999 7.787,-13.45645 2.6479,-5.59646 8.9396,-13.37247 11.213,-18.4498 2.2734,-5.07733 -1.3358,-10.78035 -6.9688,-8.5 -5.6331,2.28035 -5.766,8.30547 -10.9374,14.78125 -5.1714,6.47578 -4.6216,37.54692 -19.375,26.75 -14.7534,-10.79692 -28.8486,-66.57896 -41.9494,-88.5064 -13.1009,-21.92744 -19.1119,-29.10033 -33.3319,-43.02485 -14.2201,-13.92452 -31.9068,-23.47178 -44.4402,-28.06523 -12.5335,-4.593458 -21.0976,-9.615508 -25.4661,-8.96602 z m 195.2813,108.28125 c -6.214,-0.0434 -15.453,6.67694 -11.6563,13.46875 3.7967,6.7918 12.3735,0.95328 16.5313,0.1875 4.1577,-0.76578 3.117,4.42813 5.8125,4.9375 2.6954,0.50937 8.8075,-7.88932 4.875,-12.375 -3.9326,-4.48569 -9.3486,-6.17535 -15.5625,-6.21875 z m 76.5,68.59375 c -5.613,-0.12036 -10.5326,5.12569 -8.5937,9.375 1.9389,4.2493 3.7334,2.80754 6.7812,4.15625 3.0478,1.34871 25.0359,17.05812 36.1875,19.40625 11.1515,2.34813 20.8949,6.58686 26.0313,2.0625 5.1364,-4.52437 5.0367,-3.30798 0.1874,-7.03125 -4.8492,-3.72328 -19.4494,-1.39259 -23.2812,-3.90625 -3.8318,-2.51367 1.526,-2.65387 -3.5625,-3.46875 -5.0885,-0.81488 -11.5811,-9.05949 -16.9063,-12.625 -5.3252,-3.56551 -11.2306,-7.84839 -16.8437,-7.96875 z"
           id="path3188"
           sodipodi:nodetypes="czzzzzzzzzzzzzzzzczzzzzczzzzzzzzz" />
        <path
           style="fill:#1619f5"
           d="m -1289.1562,136 c -8.2063,-0.49901 -14.9493,4.2145 -22.894,6.1044 -7.9447,1.88989 -15.8384,7.6963 -22.6373,9.61435 -13.5001,11.84046 -11.1307,7.1854 -22.5296,11.2587 -14.4399,6.18287 -64.0164,13.17731 -80.9079,15.96005 -16.8915,2.78273 -2.1063,13.13108 -2.375,17.84375 -0.2687,4.71267 8.4134,3.58321 10.2812,0.78125 1.8678,-2.80197 4.1618,-8.84558 7.4291,-5.59948 3.2673,3.24609 7.5044,0.44307 10.5255,2.10234 3.021,1.65927 6.2823,1.49226 7.0907,-3.33242 0.8084,-4.82468 7.8428,0.4272 13.5173,-0.23294 5.6744,-0.66015 16.3157,-5.93564 25.3124,-8.09375 8.9967,-2.15812 14.237,-11.11789 24.5313,-14.5625 10.2942,-3.44461 24.9556,-11.55881 36.0625,-17.40625 11.1068,-5.84744 27.7957,-2.90356 39.0938,6.53125 11.2981,9.43481 23.4237,26.91256 30.1562,32.90625 6.7325,5.99368 7.108,9.37316 8.8438,2.125 1.7357,-7.24817 -5.2782,-15.96949 -11.2927,-25.08329 -6.0146,-9.1138 -17.5441,-21.70656 -26.6279,-26.71781 -9.0839,-5.01126 -15.3731,-3.6999 -23.5794,-4.1989 z m 64,65.21875 c -3.3343,6.88353 0.544,31.10011 6.125,37.125 5.581,6.02489 4.6219,6.61812 6.9374,-2.0625 2.3155,-8.68062 -8.6182,-28.19165 -10.0211,-37.63385 -1.4029,-9.44221 0.293,-4.31219 -3.0413,2.57135 z m 12.9062,38.8125 c -5.0192,0.22728 -7.1376,6.72963 -3.7812,11.125 3.3564,4.39537 11.5943,1.62833 11.8124,-3.71875 0.2181,-5.34708 -3.012,-7.63354 -8.0312,-7.40625 z m 5.2188,15.0625 c -4.3755,0.54994 -5.3271,7.64932 -2.4688,13.03125 2.8582,5.38193 12.1941,12.19286 18.461,11.31153 6.2668,-0.88133 11.8378,2.51353 13.8202,-2.09278 1.9823,-4.60632 8.0293,-5.05706 12.2504,-3.81582 4.221,1.24124 12.2893,4.84453 13.1559,-1.74668 0.8666,-6.59121 -6.8049,-8.74474 -13.3125,-8.625 -6.5076,0.11973 -17.0165,1.64851 -23.7188,2.3125 -6.7024,0.66399 -9.7452,-5.51405 -11.4062,-8.625 -1.6611,-3.11094 -2.4058,-2.29994 -6.7812,-1.75 z m 80.7812,32.03125 c -4.8975,0.86995 -5.7272,8.07051 -3.375,11.03125 2.3521,2.96074 5.2008,1.70213 10.2188,-0.4375 5.018,-2.13963 -1.9463,-11.4637 -6.8438,-10.59375 z m 48.125,17.25 c -5.2842,0.64043 -3.5783,13.2398 2.5312,12.46875 6.1095,-0.77106 8.3656,-6.38464 5.2813,-9.34375 -3.0843,-2.95911 -2.5283,-3.76543 -7.8125,-3.125 z"
           id="path3190"
           sodipodi:nodetypes="czcczzzzzzzzzzzzzzzzczzzzczzzczzzzzzzzzczzzczzz" />
        <path
           style="fill:#14f314"
           d="m -1438.2188,56.84375 c -6.0104,1.941435 -1.4659,9.196669 -3.1634,13.426258 0.6734,3.649297 10.2941,0.541196 14.601,1.479992 11.1717,-0.163145 22.4366,0.546461 33.25,2.875 14.3281,-2.376781 28.9635,1.205293 43.4374,-0.0625 14.7389,0.861369 29.3093,4.025922 43.2188,8.46875 21.6788,9.578599 36.3253,29.84704 47.6562,49.9375 7.9807,16.33346 14.9965,33.25793 24.9376,48.59375 3.548,5.83059 4.9473,12.82818 6.5312,19.09375 2.4656,3.79666 7.9614,1.55388 8.125,-2.6875 1.8862,-5.23379 -1.3196,-9.77373 -3.2093,-14.27089 -6.018,-17.20374 -12.1963,-34.38742 -19.8771,-50.80383 -9.3333,-17.23467 -19.5782,-34.472652 -33.8198,-48.08153 -11.7244,-10.316742 -26.2538,-17.68972 -41.8126,-20.125 -11.6794,-5.29466 -25.1118,1.940609 -36.6473,-3.507955 -27.5841,-3.47793 -55.5695,-1.76376 -83.2277,-4.335795 z m 232.9063,191.1875 c -3.6381,0.55492 -8.1778,4.65505 -7.5,7 0.7149,2.47357 9.4823,0.84755 10.5,2.96875 2.1924,4.56992 7.6169,13.4573 14.8125,11.625 9.7364,-1.09997 19.7046,-4.57996 29.2812,-0.9375 4.3498,1.21582 7.1491,-4.00793 4.3126,-7.28125 -3.0145,-5.20133 -9.1426,-6.50265 -13.9688,-9.1875 -8.9003,-3.34565 -17.065,4.21507 -25.5938,4.03125 -1.5802,-1.3769 -5.868,-0.79064 -5.9374,-1.78125 -0.2066,-2.94809 -2.4197,-6.96933 -5.9063,-6.4375 z m 54.125,21.15625 c -5.1946,0.87661 -2.6418,7.34353 0.1563,9.59375 2.5264,4.05687 8.4434,3.33118 9.25,-1.5 0.5919,-4.77188 -5.2195,-8.35427 -9.4063,-8.09375 z m 15.7187,11.28125 c -5.6021,0.23047 -6.9495,8.55145 -1.75,10.5625 4.3409,2.61888 12.2709,2.39577 13.5938,-3.5 -0.248,-4.21255 -5.656,-3.43354 -7.8438,-6.15625 -1.2224,-0.62895 -2.5906,-1.07064 -4,-0.90625 z"
           id="path3192"
           sodipodi:nodetypes="cccccccccccccccccsscccccssccccccccc" />
        <path
           style="fill:#f31412"
           d="m -1432.875,-13.46875 c -6.1503,0.105426 -9.4402,2.31037 -8.5,7.5055984 0.9402,5.19522843 5.7749,6.16938091 12.0938,6.9631516 6.3189,0.7937707 54.6292,4.599948 79.0937,10.5 24.4644,5.900052 45.8441,20.080452 59.9375,38.59375 14.0934,18.513298 24.648,42.884961 31.9688,57.84375 7.3208,14.95879 8.4645,27.23119 15.8124,30.4375 7.3479,3.20631 7.2865,-7.47083 4.4063,-12.53125 -2.8802,-5.06043 -3.999,-8.36138 -6.0937,-18.03125 -2.0947,-9.66987 -10.3031,-28.477955 -16.5626,-39.0625 -6.2595,-10.584545 -7.2653,-15.840932 -15.5624,-26.9375 -8.2971,-11.096568 -26.5004,-26.227515 -41.9376,-33.34375 -15.4371,-7.116235 -30.1085,-9.6960731 -44.875,-13.4375 -14.7664,-3.7414269 -35.937,-4.8154932 -44.375,-5.806822 -8.438,-0.991329 -1.9497,-0.709443 -6.1874,-0.943178 -4.2377,-0.233735 -13.0684,-1.855426 -19.2188,-1.75 z m 198.75,166.09375 c -3.7624,0.63964 -2.4064,7.97475 0.75,10.25 3.1564,2.27525 7.4363,-5.35227 4.9062,-7.78125 -2.5302,-2.42898 -1.8938,-3.10839 -5.6562,-2.46875 z m 52.875,88.8125 c -6.5124,0.40947 -24.1524,1.02925 -27.4062,6 -3.2538,4.97075 9.4733,11.70555 17.75,10.21875 8.2767,-1.48681 20.6529,-2.81702 27.0937,1.15625 6.4407,3.97327 6.3319,-3.67852 4.9063,-8.25 -1.4256,-4.57148 -7.2561,-7.57048 -11.4688,-8.40625 -4.2127,-0.83577 -4.3626,-1.12822 -10.875,-0.71875 z m 28.9062,21.4375 c -3.3593,0.66027 -3.5375,7.99204 0.1563,9.0625 3.6938,1.07046 7.2722,-1.64313 5.6875,-4.625 -1.5847,-2.98187 -2.4845,-5.09777 -5.8438,-4.4375 z m 10.5,13.34375 c -4.052,0.66465 -0.9369,9.10678 3.4376,8.28125 4.3745,-0.82554 5.5728,-4.34911 2.9687,-6.125 -2.6042,-1.77589 -2.3543,-2.8209 -6.4063,-2.15625 z"
           id="path3194"
           sodipodi:nodetypes="czzzzzzzzzzzzzzzczzzczzzzzzczzzczzz" />
      </g>
      <text
         sodipodi:linespacing="80.000001%"
         id="text3232"
         y="401.84915"
         x="-1633.1123"
         style="font-size:96.82202911px;font-style:normal;font-variant:normal;font-weight:normal;font-stretch:normal;line-height:80.00000119%;fill:#000000;fill-opacity:1;stroke:none;font-family:Linux Libertine O;-inkscape-font-specification:Linux Libertine O"
         xml:space="preserve"><tspan
           style="font-size:129.09603882px;font-style:normal;font-variant:normal;font-weight:normal;font-stretch:normal;text-align:start;line-height:80.00000119%;writing-mode:lr-tb;text-anchor:start;font-family:Linux Libertine O C;-inkscape-font-specification:Linux Libertine O C"
           y="401.84915"
           x="-1633.1123"
           id="tspan3234"
           sodipodi:role="line">SASfit</tspan><tspan
           id="tspan3236"
           style="font-size:72.61652374px;font-style:normal;font-variant:normal;font-weight:normal;font-stretch:normal;text-align:start;line-height:80.00000119%;writing-mode:lr-tb;text-anchor:start;font-family:Linux Libertine O C;-inkscape-font-specification:Linux Libertine O C"
           y="469.69507"
           x="-1633.1123"
           sodipodi:role="line">             Manual</tspan></text>
    </g>
    <g
       inkscape:export-ydpi="23.717203"
       inkscape:export-xdpi="23.717203"
       inkscape:export-filename="/home/ingo/code/sasfit/trunk/from_cvs/doc/images/sasfit_icon_wiki.png"
       id="g3018"
       transform="translate(-792.48305,0)">
      <g
         id="g3030">
        <g
           transform="translate(-136.47458,-1.3698207e-6)"
           id="g3020">
          <path
             inkscape:connector-curvature="0"
             style="fill:#161413"
             d="m -1408.8438,-52.78125 c -9.4388,1.340201 -8.6133,10.748011 -0.7187,13.90625 7.8946,3.158239 18.2609,3.014796 29.8125,6.21875 11.5515,3.203954 26.2648,5.813191 39.0938,13.59375 12.829,7.780559 28.8633,16.0592892 38.875,27.78125 10.0117,11.721961 17.5657,24.252861 24.4235,38.953105 6.8578,14.700243 18.1761,31.844292 23.5139,45.203145 5.3378,13.35885 6.9355,23.7773 11.625,33.1875 4.6895,9.4102 -0.2715,23.49916 4.9063,27.78125 5.1778,4.28208 9.0742,-1.83189 6.875,3.40625 -2.1992,5.23813 1.8966,22.68712 5.0625,29.84375 3.1659,7.15663 0.6654,7.77514 1.1875,16.28125 0.5222,8.50611 9.5933,22.58917 8.4375,33.625 -1.1557,11.03582 13.1752,12.08336 21.5312,11.46875 8.356,-0.61461 17.566,-6.66481 24.8126,-2.15625 7.2466,4.50855 6.7958,13.49696 13.5,17.21875 6.7042,3.72178 9.5024,16.85193 16.8437,17.21875 7.3412,0.36682 6.9883,4.73369 11.8853,8.36105 4.8969,3.62735 11.6654,4.97347 18.9584,11.76395 7.2929,6.79048 26.9404,7.77791 34.2813,8.75 7.3408,0.97209 4.4732,1.77371 8.0937,-0.71875 3.6205,-2.49246 8.2218,-6.94821 0.6876,-11.5 -7.5342,-4.55179 -22.5091,-5.43939 -33.6431,-11.22551 -11.134,-5.78612 -27.425,-4.46402 -35.0757,-18.27449 -7.6508,-13.81047 -20.5357,-35.61636 -28.7642,-40.61068 -8.2285,-4.99432 -12.7656,-3.47283 -27.193,0.003 -14.4273,3.47557 -16.344,-6.09133 -21.074,-18.64206 -4.73,-12.55073 -4.4773,-30.67576 -9.4516,-40.53099 -4.9743,-9.85523 -7.2912,-19.43253 -8.2424,-27.92443 -0.9513,-8.4919 -8.482,-20.04426 -11.2436,-33.88833 -2.7617,-13.844069 -8.2964,-33.987995 -14.8437,-48.9375 -6.5474,-14.949505 -12.9682,-27.57552 -22.5313,-42.4375 -9.5631,-14.86198005 -23.1785,-30.723046 -39.2799,-40.851276 -16.1015,-10.12823 -35.4707,-18.109085 -51.4136,-21.526714 -15.9429,-3.417629 -31.4928,-6.680961 -40.9315,-5.34076 z"
             id="path3022"
             sodipodi:nodetypes="cssssssssssssssssssssssszzsssssssss" />
          <path
             inkscape:connector-curvature="0"
             style="fill:#fcfd7d"
             d="m -1418.8438,0.5 c -3.015,0.25574377 -5.4135,8.9324285 -9.5312,7.5 -4.1177,-1.4324285 -12.8066,-0.8983762 -13.125,4.5625 -0.3184,5.460876 2.3683,7.698184 6.875,8.90625 3.9975,1.07157 43.1109,15.411788 56.9062,23.84375 13.7952,8.431962 20.5215,13.88954 27.5372,22.737573 7.0157,8.848033 11.8512,13.057651 18.4787,27.436034 6.6274,14.378383 16.3979,36.846723 23.4217,58.951393 7.0237,22.10466 15.6487,53.52024 19.4062,72.71875 3.7574,19.19851 7.1114,31.46418 15.4375,39.03125 8.326,7.56707 16.1263,3.41398 20.125,-4.21875 3.9987,-7.63273 9.1328,-18.16876 13.0625,-23.25 3.9296,-5.08124 -5.1106,-10.73469 -11.1562,-7.03125 -6.0456,3.70344 -5.781,6.65156 -6.0652,11.74414 -0.2843,5.09258 -3.7174,20.69985 -9.1224,10.06836 -5.4051,-10.63149 -10.3939,-31.86507 -16.3124,-56.96875 -5.9186,-25.10368 -20.4051,-71.82439 -29.0626,-90.875 -8.6575,-19.050612 -6.5166,-14.295525 -14.6417,-26.713634 -8.1251,-12.41811 -29.0076,-36.263874 -38.952,-43.192616 -9.9444,-6.928742 -7.2954,-3.75788 -8.6563,-10.0625 -1.361,-6.30462 -12.7227,-4.613216 -18,-5.53125 -5.2774,-0.918034 -6.9147,-4.110206 -7.6874,-8.46875 -0.7728,-4.3585443 -7.3873,-5.9326674 -10,-4.25 -2.6127,1.6826674 -1.1814,6.071236 -3.5313,2.96875 -2.35,-3.1024865 0.8134,-6.4586672 -1.4063,-8.125 -2.2197,-1.6663328 -0.985,-2.03699377 -4,-1.78125 z m 184.3438,211 c -6.2405,0.33079 -12.9422,8.55809 -8.9375,12.3125 4.0047,3.75441 12.0416,3.47168 15.8125,-1.46875 3.7709,-4.94043 -0.6345,-11.17454 -6.875,-10.84375 z"
             id="path3024"
             sodipodi:nodetypes="czzzzzzzzzzzzzzzzzzzzzzzzzczzz" />
          <path
             inkscape:connector-curvature="0"
             style="fill:#7bf9fb"
             d="m -1260.6562,191.84375 c 4.8072,3.17582 10.8282,5.1386 14.3437,-0.0937 3.5155,-5.23231 -2.3295,-13.41594 -6.5625,-12.65625 -8.3385,1.33593 -11.312,-1.81537 -7.7812,12.74995 z m 18.9374,-9.125 c -4.0723,0.64764 -3.0802,4.12953 -2.7187,10.375 0.3615,6.24546 12.5172,16.58351 19.2813,13.8125 6.7641,-2.77101 -0.5315,-10.38008 -1.4376,-13.65625 -0.9061,-3.27617 -4.0817,-2.24294 -6.0624,-4.71875 -1.9807,-2.47581 -4.9903,-6.46015 -9.0626,-5.8125 z m -29.7812,2.4375 c -4.6179,1.01724 -11.2005,8.36157 -14.875,14.40625 -3.6746,6.04468 -10.7312,9.89495 -16.0938,15.21875 -5.011,19.68804 -12.652,16.55983 -25.9374,25.40625 -5.8464,5.48662 -10.6679,12.48824 -28.1445,2.67779 -17.4767,-9.81045 -74.9313,-41.77995 -78.068,-42.26175 -3.1367,-0.4818 -7.1209,-0.33229 -6.5688,3.95896 0.5521,4.29125 1.1385,10.65686 6.1119,11.78774 4.9734,1.13088 9.2113,0.94936 9.6381,4.61851 0.4267,3.66914 3.1353,12.8503 8,11.28125 4.8647,-1.56905 3.5586,-5.96475 6.3125,-4.4375 2.7539,1.52725 7.0381,1.44223 2.125,3.125 -4.9131,1.68276 -0.2612,13.0553 4.5938,11.15625 4.855,-1.89905 -1.8199,-9.60279 5.9062,-6.5625 7.726,3.04028 34.8108,22.34085 46.2178,24.73047 11.4069,2.38962 16.8677,-2.93085 17.626,-0.32422 0.7583,2.60662 5.9112,12.00148 10.0312,8.40625 4.1199,-3.59524 -2.6758,-7.92764 0.1562,-9.5625 4.6737,-12.91481 17.8709,-17.99853 24.8438,-26.09375 4.8095,-6.50231 16.8694,-19.65759 23.25,-26.21875 6.3806,-6.56117 11.0978,-13.43486 9.7188,-18.25 -1.3791,-4.81515 -0.2259,-4.07975 -4.8438,-3.0625 z m -111.6562,65.28125 c -4.275,0.11579 -6.6736,10.0613 -0.5938,12.0625 6.0798,2.0012 9.8936,-8.79883 5.8125,-10.90625 -4.0811,-2.10742 -0.9437,-1.27204 -5.2187,-1.15625 z m 210.5312,17.25 c -3.9943,0.42884 -5.6628,8.73676 -12.375,8.28125 -6.7122,-0.45551 -6.5795,3.93176 0.3125,4.40625 6.8919,0.47449 17.2525,-2.59502 18.0625,-7.84375 0.8099,-5.24874 -2.0058,-5.27259 -6,-4.84375 z"
             id="path3026"
             sodipodi:nodetypes="czccczzzzzczcczzzzzzzzzzzzzcczzzczzzczzzz" />
          <path
             inkscape:connector-curvature="0"
             style="fill:#f77bfb"
             d="m -1435.0938,93.4375 c -4.3685,0.649488 -11.0224,5.536717 -5.6874,9.30677 5.335,3.77005 12.8497,6.2923 20.8496,10.59102 7.9999,4.29872 33.3398,17.50322 48.5566,31.07096 15.2167,13.56774 22.9131,26.54552 32.2188,43.84375 9.3057,17.29823 18.9673,43.46478 26,58.125 7.0326,14.66022 8.3012,23.50014 18.4374,29.28125 10.1362,5.78111 21.8887,-7.09847 23.0938,-14.78125 1.2051,-7.68278 5.139,-7.85999 7.787,-13.45645 2.6479,-5.59646 8.9396,-13.37247 11.213,-18.4498 2.2734,-5.07733 -1.3358,-10.78035 -6.9688,-8.5 -5.6331,2.28035 -5.766,8.30547 -10.9374,14.78125 -5.1714,6.47578 -4.6216,37.54692 -19.375,26.75 -14.7534,-10.79692 -28.8486,-66.57896 -41.9494,-88.5064 -13.1009,-21.92744 -19.1119,-29.10033 -33.3319,-43.02485 -14.2201,-13.92452 -31.9068,-23.47178 -44.4402,-28.06523 -12.5335,-4.593458 -21.0976,-9.615508 -25.4661,-8.96602 z m 195.2813,108.28125 c -6.214,-0.0434 -15.453,6.67694 -11.6563,13.46875 3.7967,6.7918 12.3735,0.95328 16.5313,0.1875 4.1577,-0.76578 3.117,4.42813 5.8125,4.9375 2.6954,0.50937 8.8075,-7.88932 4.875,-12.375 -3.9326,-4.48569 -9.3486,-6.17535 -15.5625,-6.21875 z m 76.5,68.59375 c -5.613,-0.12036 -10.5326,5.12569 -8.5937,9.375 1.9389,4.2493 3.7334,2.80754 6.7812,4.15625 3.0478,1.34871 25.0359,17.05812 36.1875,19.40625 11.1515,2.34813 20.8949,6.58686 26.0313,2.0625 5.1364,-4.52437 5.0367,-3.30798 0.1874,-7.03125 -4.8492,-3.72328 -19.4494,-1.39259 -23.2812,-3.90625 -3.8318,-2.51367 1.526,-2.65387 -3.5625,-3.46875 -5.0885,-0.81488 -11.5811,-9.05949 -16.9063,-12.625 -5.3252,-3.56551 -11.2306,-7.84839 -16.8437,-7.96875 z"
             id="path3028"
             sodipodi:nodetypes="czzzzzzzzzzzzzzzzczzzzzczzzzzzzzz" />
          <path
             inkscape:connector-curvature="0"
             style="fill:#1619f5"
             d="m -1289.1562,136 c -8.2063,-0.49901 -14.9493,4.2145 -22.894,6.1044 -7.9447,1.88989 -15.8384,7.6963 -22.6373,9.61435 -13.5001,11.84046 -11.1307,7.1854 -22.5296,11.2587 -14.4399,6.18287 -64.0164,13.17731 -80.9079,15.96005 -16.8915,2.78273 -2.1063,13.13108 -2.375,17.84375 -0.2687,4.71267 8.4134,3.58321 10.2812,0.78125 1.8678,-2.80197 4.1618,-8.84558 7.4291,-5.59948 3.2673,3.24609 7.5044,0.44307 10.5255,2.10234 3.021,1.65927 6.2823,1.49226 7.0907,-3.33242 0.8084,-4.82468 7.8428,0.4272 13.5173,-0.23294 5.6744,-0.66015 16.3157,-5.93564 25.3124,-8.09375 8.9967,-2.15812 14.237,-11.11789 24.5313,-14.5625 10.2942,-3.44461 24.9556,-11.55881 36.0625,-17.40625 11.1068,-5.84744 27.7957,-2.90356 39.0938,6.53125 11.2981,9.43481 23.4237,26.91256 30.1562,32.90625 6.7325,5.99368 7.108,9.37316 8.8438,2.125 1.7357,-7.24817 -5.2782,-15.96949 -11.2927,-25.08329 -6.0146,-9.1138 -17.5441,-21.70656 -26.6279,-26.71781 -9.0839,-5.01126 -15.3731,-3.6999 -23.5794,-4.1989 z m 64,65.21875 c -3.3343,6.88353 0.544,31.10011 6.125,37.125 5.581,6.02489 4.6219,6.61812 6.9374,-2.0625 2.3155,-8.68062 -8.6182,-28.19165 -10.0211,-37.63385 -1.4029,-9.44221 0.293,-4.31219 -3.0413,2.57135 z m 12.9062,38.8125 c -5.0192,0.22728 -7.1376,6.72963 -3.7812,11.125 3.3564,4.39537 11.5943,1.62833 11.8124,-3.71875 0.2181,-5.34708 -3.012,-7.63354 -8.0312,-7.40625 z m 5.2188,15.0625 c -4.3755,0.54994 -5.3271,7.64932 -2.4688,13.03125 2.8582,5.38193 12.1941,12.19286 18.461,11.31153 6.2668,-0.88133 11.8378,2.51353 13.8202,-2.09278 1.9823,-4.60632 8.0293,-5.05706 12.2504,-3.81582 4.221,1.24124 12.2893,4.84453 13.1559,-1.74668 0.8666,-6.59121 -6.8049,-8.74474 -13.3125,-8.625 -6.5076,0.11973 -17.0165,1.64851 -23.7188,2.3125 -6.7024,0.66399 -9.7452,-5.51405 -11.4062,-8.625 -1.6611,-3.11094 -2.4058,-2.29994 -6.7812,-1.75 z m 80.7812,32.03125 c -4.8975,0.86995 -5.7272,8.07051 -3.375,11.03125 2.3521,2.96074 5.2008,1.70213 10.2188,-0.4375 5.018,-2.13963 -1.9463,-11.4637 -6.8438,-10.59375 z m 48.125,17.25 c -5.2842,0.64043 -3.5783,13.2398 2.5312,12.46875 6.1095,-0.77106 8.3656,-6.38464 5.2813,-9.34375 -3.0843,-2.95911 -2.5283,-3.76543 -7.8125,-3.125 z"
             id="path3030"
             sodipodi:nodetypes="czcczzzzzzzzzzzzzzzzczzzzczzzczzzzzzzzzczzzczzz" />
          <path
             inkscape:connector-curvature="0"
             style="fill:#14f314"
             d="m -1438.2188,56.84375 c -6.0104,1.941435 -1.4659,9.196669 -3.1634,13.426258 0.6734,3.649297 10.2941,0.541196 14.601,1.479992 11.1717,-0.163145 22.4366,0.546461 33.25,2.875 14.3281,-2.376781 28.9635,1.205293 43.4374,-0.0625 14.7389,0.861369 29.3093,4.025922 43.2188,8.46875 21.6788,9.578599 36.3253,29.84704 47.6562,49.9375 7.9807,16.33346 14.9965,33.25793 24.9376,48.59375 3.548,5.83059 4.9473,12.82818 6.5312,19.09375 2.4656,3.79666 7.9614,1.55388 8.125,-2.6875 1.8862,-5.23379 -1.3196,-9.77373 -3.2093,-14.27089 -6.018,-17.20374 -12.1963,-34.38742 -19.8771,-50.80383 -9.3333,-17.23467 -19.5782,-34.472652 -33.8198,-48.08153 -11.7244,-10.316742 -26.2538,-17.68972 -41.8126,-20.125 -11.6794,-5.29466 -25.1118,1.940609 -36.6473,-3.507955 -27.5841,-3.47793 -55.5695,-1.76376 -83.2277,-4.335795 z m 232.9063,191.1875 c -3.6381,0.55492 -8.1778,4.65505 -7.5,7 0.7149,2.47357 9.4823,0.84755 10.5,2.96875 2.1924,4.56992 7.6169,13.4573 14.8125,11.625 9.7364,-1.09997 19.7046,-4.57996 29.2812,-0.9375 4.3498,1.21582 7.1491,-4.00793 4.3126,-7.28125 -3.0145,-5.20133 -9.1426,-6.50265 -13.9688,-9.1875 -8.9003,-3.34565 -17.065,4.21507 -25.5938,4.03125 -1.5802,-1.3769 -5.868,-0.79064 -5.9374,-1.78125 -0.2066,-2.94809 -2.4197,-6.96933 -5.9063,-6.4375 z m 54.125,21.15625 c -5.1946,0.87661 -2.6418,7.34353 0.1563,9.59375 2.5264,4.05687 8.4434,3.33118 9.25,-1.5 0.5919,-4.77188 -5.2195,-8.35427 -9.4063,-8.09375 z m 15.7187,11.28125 c -5.6021,0.23047 -6.9495,8.55145 -1.75,10.5625 4.3409,2.61888 12.2709,2.39577 13.5938,-3.5 -0.248,-4.21255 -5.656,-3.43354 -7.8438,-6.15625 -1.2224,-0.62895 -2.5906,-1.07064 -4,-0.90625 z"
             id="path3032"
             sodipodi:nodetypes="cccccccccccccccccsscccccssccccccccc" />
          <path
             inkscape:connector-curvature="0"
             style="fill:#f31412"
             d="m -1432.875,-13.46875 c -6.1503,0.105426 -9.4402,2.31037 -8.5,7.5055984 0.9402,5.19522843 5.7749,6.16938091 12.0938,6.9631516 6.3189,0.7937707 54.6292,4.599948 79.0937,10.5 24.4644,5.900052 45.8441,20.080452 59.9375,38.59375 14.0934,18.513298 24.648,42.884961 31.9688,57.84375 7.3208,14.95879 8.4645,27.23119 15.8124,30.4375 7.3479,3.20631 7.2865,-7.47083 4.4063,-12.53125 -2.8802,-5.06043 -3.999,-8.36138 -6.0937,-18.03125 -2.0947,-9.66987 -10.3031,-28.477955 -16.5626,-39.0625 -6.2595,-10.584545 -7.2653,-15.840932 -15.5624,-26.9375 -8.2971,-11.096568 -26.5004,-26.227515 -41.9376,-33.34375 -15.4371,-7.116235 -30.1085,-9.6960731 -44.875,-13.4375 -14.7664,-3.7414269 -35.937,-4.8154932 -44.375,-5.806822 -8.438,-0.991329 -1.9497,-0.709443 -6.1874,-0.943178 -4.2377,-0.233735 -13.0684,-1.855426 -19.2188,-1.75 z m 198.75,166.09375 c -3.7624,0.63964 -2.4064,7.97475 0.75,10.25 3.1564,2.27525 7.4363,-5.35227 4.9062,-7.78125 -2.5302,-2.42898 -1.8938,-3.10839 -5.6562,-2.46875 z m 52.875,88.8125 c -6.5124,0.40947 -24.1524,1.02925 -27.4062,6 -3.2538,4.97075 9.4733,11.70555 17.75,10.21875 8.2767,-1.48681 20.6529,-2.81702 27.0937,1.15625 6.4407,3.97327 6.3319,-3.67852 4.9063,-8.25 -1.4256,-4.57148 -7.2561,-7.57048 -11.4688,-8.40625 -4.2127,-0.83577 -4.3626,-1.12822 -10.875,-0.71875 z m 28.9062,21.4375 c -3.3593,0.66027 -3.5375,7.99204 0.1563,9.0625 3.6938,1.07046 7.2722,-1.64313 5.6875,-4.625 -1.5847,-2.98187 -2.4845,-5.09777 -5.8438,-4.4375 z m 10.5,13.34375 c -4.052,0.66465 -0.9369,9.10678 3.4376,8.28125 4.3745,-0.82554 5.5728,-4.34911 2.9687,-6.125 -2.6042,-1.77589 -2.3543,-2.8209 -6.4063,-2.15625 z"
             id="path3034"
             sodipodi:nodetypes="czzzzzzzzzzzzzzzczzzczzzzzzczzzczzz" />
        </g>
        <text
           sodipodi:linespacing="80.000001%"
           id="text3036"
           y="401.84915"
           x="-1633.1123"
           style="font-size:96.82202911px;font-style:normal;font-variant:normal;font-weight:normal;font-stretch:normal;line-height:80.00000119%;fill:#000000;fill-opacity:1;stroke:none;font-family:Linux Libertine O;-inkscape-font-specification:Linux Libertine O"
           xml:space="preserve"><tspan
             id="tspan3040"
             style="font-size:129.09603881999998976px;font-style:normal;font-variant:normal;font-weight:normal;font-stretch:normal;text-align:start;line-height:80.00000119000000609%;writing-mode:lr-tb;text-anchor:start;font-family:Linux Libertine O C;-inkscape-font-specification:Linux Libertine O C"
             y="401.84915"
             x="-1633.1123"
             sodipodi:role="line">SASfit</tspan></text>
      </g>
    </g>
  </g>
</svg>
