<?xml version="1.0" encoding="UTF-8" standalone="no"?>
<!-- Created with Inkscape (http://www.inkscape.org/) -->

<svg
   xmlns:dc="http://purl.org/dc/elements/1.1/"
   xmlns:cc="http://creativecommons.org/ns#"
   xmlns:rdf="http://www.w3.org/1999/02/22-rdf-syntax-ns#"
   xmlns:svg="http://www.w3.org/2000/svg"
   xmlns="http://www.w3.org/2000/svg"
   xmlns:sodipodi="http://sodipodi.sourceforge.net/DTD/sodipodi-0.dtd"
   xmlns:inkscape="http://www.inkscape.org/namespaces/inkscape"
   id="svg2894"
   version="1.1"
   inkscape:version="0.92.3 (2405546, 2018-03-11)"
   width="434.052"
   height="433.96603"
   sodipodi:docname="sasfit_icon_alone.svg">
  <metadata
     id="metadata2900">
    <rdf:RDF>
      <cc:Work
         rdf:about="">
        <dc:format>image/svg+xml</dc:format>
        <dc:type
           rdf:resource="http://purl.org/dc/dcmitype/StillImage" />
        <dc:title></dc:title>
      </cc:Work>
    </rdf:RDF>
  </metadata>
  <defs
     id="defs2898">
    <inkscape:perspective
       sodipodi:type="inkscape:persp3d"
       inkscape:vp_x="0 : 0.5 : 1"
       inkscape:vp_y="0 : 1000 : 0"
       inkscape:vp_z="1 : 0.5 : 1"
       inkscape:persp3d-origin="0.5 : 0.33333333 : 1"
       id="perspective2902" />
  </defs>
  <sodipodi:namedview
     pagecolor="#ffffff"
     bordercolor="#666666"
     borderopacity="1"
     objecttolerance="10"
     gridtolerance="10"
     guidetolerance="10"
     inkscape:pageopacity="0"
     inkscape:pageshadow="2"
     inkscape:window-width="1920"
     inkscape:window-height="1021"
     id="namedview2896"
     showgrid="false"
     inkscape:zoom="0.91189727"
     inkscape:cx="311.98472"
     inkscape:cy="74.706568"
     inkscape:window-x="0"
     inkscape:window-y="0"
     inkscape:window-maximized="1"
     inkscape:current-layer="g3796"
     fit-margin-top="1"
     fit-margin-left="1"
     fit-margin-right="1"
     fit-margin-bottom="1" />
  <g
     id="g3182"
     transform="translate(2423.1098,54.08903)">
    <g
       inkscape:export-ydpi="23.717203"
       inkscape:export-xdpi="23.717203"
       inkscape:export-filename="/home/ingo/code/sasfit/trunk/from_cvs/doc/images/sasfit_icon_wiki.png"
       id="g3018"
       transform="translate(-792.48305)">
      <g
         id="g3030">
        <g
           id="g3784">
          <g
             id="g3796">
            <g
               id="g3808">
              <g
                 id="g3020"
                 transform="translate(-136.47458,-1.3698207e-6)">
                <path
                   sodipodi:nodetypes="cssssssssssssssssssssssszzsssssssss"
                   id="path3022"
                   d="m -1408.8438,-52.78125 c -9.4388,1.340201 -8.6133,10.748011 -0.7187,13.90625 7.8946,3.158239 18.2609,3.014796 29.8125,6.21875 11.5515,3.203954 26.2648,5.813191 39.0938,13.59375 12.829,7.780559 28.8633,16.0592892 38.875,27.78125 10.0117,11.721961 17.5657,24.252861 24.4235,38.953105 6.8578,14.700243 18.1761,31.844292 23.5139,45.203145 5.3378,13.35885 6.9355,23.7773 11.625,33.1875 4.6895,9.4102 -0.2715,23.49916 4.9063,27.78125 5.1778,4.28208 9.0742,-1.83189 6.875,3.40625 -2.1992,5.23813 1.8966,22.68712 5.0625,29.84375 3.1659,7.15663 0.6654,7.77514 1.1875,16.28125 0.5222,8.50611 9.5933,22.58917 8.4375,33.625 -1.1557,11.03582 13.1752,12.08336 21.5312,11.46875 8.356,-0.61461 17.566,-6.66481 24.8126,-2.15625 7.2466,4.50855 6.7958,13.49696 13.5,17.21875 6.7042,3.72178 9.5024,16.85193 16.8437,17.21875 7.3412,0.36682 6.9883,4.73369 11.8853,8.36105 4.8969,3.62735 11.6654,4.97347 18.9584,11.76395 7.2929,6.79048 26.9404,7.77791 34.2813,8.75 7.3408,0.97209 4.4732,1.77371 8.0937,-0.71875 3.6205,-2.49246 8.2218,-6.94821 0.6876,-11.5 -7.5342,-4.55179 -22.5091,-5.43939 -33.6431,-11.22551 -11.134,-5.78612 -27.425,-4.46402 -35.0757,-18.27449 -7.6508,-13.81047 -20.5357,-35.61636 -28.7642,-40.61068 -8.2285,-4.99432 -12.7656,-3.47283 -27.193,0.003 -14.4273,3.47557 -16.344,-6.09133 -21.074,-18.64206 -4.73,-12.55073 -4.4773,-30.67576 -9.4516,-40.53099 -4.9743,-9.85523 -7.2912,-19.43253 -8.2424,-27.92443 -0.9513,-8.4919 -8.482,-20.04426 -11.2436,-33.88833 -2.7617,-13.844069 -8.2964,-33.987995 -14.8437,-48.9375 -6.5474,-14.949505 -12.9682,-27.57552 -22.5313,-42.4375 -9.5631,-14.86198005 -23.1785,-30.723046 -39.2799,-40.851276 -16.1015,-10.12823 -35.4707,-18.109085 -51.4136,-21.526714 -15.9429,-3.417629 -31.4928,-6.680961 -40.9315,-5.34076 z"
                   style="fill:#161413"
                   inkscape:connector-curvature="0" />
                <path
                   sodipodi:nodetypes="czzzzzzzzzzzzzzzzzzzzzzzzzczzz"
                   id="path3024"
                   d="m -1418.8438,0.5 c -3.015,0.25574377 -5.4135,8.9324285 -9.5312,7.5 -4.1177,-1.4324285 -12.8066,-0.8983762 -13.125,4.5625 -0.3184,5.460876 2.3683,7.698184 6.875,8.90625 3.9975,1.07157 43.1109,15.411788 56.9062,23.84375 13.7952,8.431962 20.5215,13.88954 27.5372,22.737573 7.0157,8.848033 11.8512,13.057651 18.4787,27.436034 6.6274,14.378383 16.3979,36.846723 23.4217,58.951393 7.0237,22.10466 15.6487,53.52024 19.4062,72.71875 3.7574,19.19851 7.1114,31.46418 15.4375,39.03125 8.326,7.56707 16.1263,3.41398 20.125,-4.21875 3.9987,-7.63273 9.1328,-18.16876 13.0625,-23.25 3.9296,-5.08124 -5.1106,-10.73469 -11.1562,-7.03125 -6.0456,3.70344 -5.781,6.65156 -6.0652,11.74414 -0.2843,5.09258 -3.7174,20.69985 -9.1224,10.06836 -5.4051,-10.63149 -10.3939,-31.86507 -16.3124,-56.96875 -5.9186,-25.10368 -20.4051,-71.82439 -29.0626,-90.875 -8.6575,-19.050612 -6.5166,-14.295525 -14.6417,-26.713634 -8.1251,-12.41811 -29.0076,-36.263874 -38.952,-43.192616 -9.9444,-6.928742 -7.2954,-3.75788 -8.6563,-10.0625 -1.361,-6.30462 -12.7227,-4.613216 -18,-5.53125 -5.2774,-0.918034 -6.9147,-4.110206 -7.6874,-8.46875 -0.7728,-4.3585443 -7.3873,-5.9326674 -10,-4.25 -2.6127,1.6826674 -1.1814,6.071236 -3.5313,2.96875 -2.35,-3.1024865 0.8134,-6.4586672 -1.4063,-8.125 -2.2197,-1.6663328 -0.985,-2.03699377 -4,-1.78125 z m 184.3438,211 c -6.2405,0.33079 -12.9422,8.55809 -8.9375,12.3125 4.0047,3.75441 12.0416,3.47168 15.8125,-1.46875 3.7709,-4.94043 -0.6345,-11.17454 -6.875,-10.84375 z"
                   style="fill:#fcfd7d"
                   inkscape:connector-curvature="0" />
                <path
                   sodipodi:nodetypes="czccczzzzzczcczzzzzzzzzzzzzcczzzczzzczzzz"
                   id="path3026"
                   d="m -1260.6562,191.84375 c 4.8072,3.17582 10.8282,5.1386 14.3437,-0.0937 3.5155,-5.23231 -2.3295,-13.41594 -6.5625,-12.65625 -8.3385,1.33593 -11.312,-1.81537 -7.7812,12.74995 z m 18.9374,-9.125 c -4.0723,0.64764 -3.0802,4.12953 -2.7187,10.375 0.3615,6.24546 12.5172,16.58351 19.2813,13.8125 6.7641,-2.77101 -0.5315,-10.38008 -1.4376,-13.65625 -0.9061,-3.27617 -4.0817,-2.24294 -6.0624,-4.71875 -1.9807,-2.47581 -4.9903,-6.46015 -9.0626,-5.8125 z m -29.7812,2.4375 c -4.6179,1.01724 -11.2005,8.36157 -14.875,14.40625 -3.6746,6.04468 -10.7312,9.89495 -16.0938,15.21875 -5.011,19.68804 -12.652,16.55983 -25.9374,25.40625 -5.8464,5.48662 -10.6679,12.48824 -28.1445,2.67779 -17.4767,-9.81045 -74.9313,-41.77995 -78.068,-42.26175 -3.1367,-0.4818 -7.1209,-0.33229 -6.5688,3.95896 0.5521,4.29125 1.1385,10.65686 6.1119,11.78774 4.9734,1.13088 9.2113,0.94936 9.6381,4.61851 0.4267,3.66914 3.1353,12.8503 8,11.28125 4.8647,-1.56905 3.5586,-5.96475 6.3125,-4.4375 2.7539,1.52725 7.0381,1.44223 2.125,3.125 -4.9131,1.68276 -0.2612,13.0553 4.5938,11.15625 4.855,-1.89905 -1.8199,-9.60279 5.9062,-6.5625 7.726,3.04028 34.8108,22.34085 46.2178,24.73047 11.4069,2.38962 16.8677,-2.93085 17.626,-0.32422 0.7583,2.60662 5.9112,12.00148 10.0312,8.40625 4.1199,-3.59524 -2.6758,-7.92764 0.1562,-9.5625 4.6737,-12.91481 17.8709,-17.99853 24.8438,-26.09375 4.8095,-6.50231 16.8694,-19.65759 23.25,-26.21875 6.3806,-6.56117 11.0978,-13.43486 9.7188,-18.25 -1.3791,-4.81515 -0.2259,-4.07975 -4.8438,-3.0625 z m -111.6562,65.28125 c -4.275,0.11579 -6.6736,10.0613 -0.5938,12.0625 6.0798,2.0012 9.8936,-8.79883 5.8125,-10.90625 -4.0811,-2.10742 -0.9437,-1.27204 -5.2187,-1.15625 z m 210.5312,17.25 c -3.9943,0.42884 -5.6628,8.73676 -12.375,8.28125 -6.7122,-0.45551 -6.5795,3.93176 0.3125,4.40625 6.8919,0.47449 17.2525,-2.59502 18.0625,-7.84375 0.8099,-5.24874 -2.0058,-5.27259 -6,-4.84375 z"
                   style="fill:#7bf9fb"
                   inkscape:connector-curvature="0" />
                <path
                   sodipodi:nodetypes="czzzzzzzzzzzzzzzzczzzzzczzzzzzzzz"
                   id="path3028"
                   d="m -1435.0938,93.4375 c -4.3685,0.649488 -11.0224,5.536717 -5.6874,9.30677 5.335,3.77005 12.8497,6.2923 20.8496,10.59102 7.9999,4.29872 33.3398,17.50322 48.5566,31.07096 15.2167,13.56774 22.9131,26.54552 32.2188,43.84375 9.3057,17.29823 18.9673,43.46478 26,58.125 7.0326,14.66022 8.3012,23.50014 18.4374,29.28125 10.1362,5.78111 21.8887,-7.09847 23.0938,-14.78125 1.2051,-7.68278 5.139,-7.85999 7.787,-13.45645 2.6479,-5.59646 8.9396,-13.37247 11.213,-18.4498 2.2734,-5.07733 -1.3358,-10.78035 -6.9688,-8.5 -5.6331,2.28035 -5.766,8.30547 -10.9374,14.78125 -5.1714,6.47578 -4.6216,37.54692 -19.375,26.75 -14.7534,-10.79692 -28.8486,-66.57896 -41.9494,-88.5064 -13.1009,-21.92744 -19.1119,-29.10033 -33.3319,-43.02485 -14.2201,-13.92452 -31.9068,-23.47178 -44.4402,-28.06523 -12.5335,-4.593458 -21.0976,-9.615508 -25.4661,-8.96602 z m 195.2813,108.28125 c -6.214,-0.0434 -15.453,6.67694 -11.6563,13.46875 3.7967,6.7918 12.3735,0.95328 16.5313,0.1875 4.1577,-0.76578 3.117,4.42813 5.8125,4.9375 2.6954,0.50937 8.8075,-7.88932 4.875,-12.375 -3.9326,-4.48569 -9.3486,-6.17535 -15.5625,-6.21875 z m 76.5,68.59375 c -5.613,-0.12036 -10.5326,5.12569 -8.5937,9.375 1.9389,4.2493 3.7334,2.80754 6.7812,4.15625 3.0478,1.34871 25.0359,17.05812 36.1875,19.40625 11.1515,2.34813 20.8949,6.58686 26.0313,2.0625 5.1364,-4.52437 5.0367,-3.30798 0.1874,-7.03125 -4.8492,-3.72328 -19.4494,-1.39259 -23.2812,-3.90625 -3.8318,-2.51367 1.526,-2.65387 -3.5625,-3.46875 -5.0885,-0.81488 -11.5811,-9.05949 -16.9063,-12.625 -5.3252,-3.56551 -11.2306,-7.84839 -16.8437,-7.96875 z"
                   style="fill:#f77bfb"
                   inkscape:connector-curvature="0" />
                <path
                   sodipodi:nodetypes="czcczzzzzzzzzzzzzzzzczzzzczzzczzzzzzzzzczzzczzz"
                   id="path3030"
                   d="m -1289.1562,136 c -8.2063,-0.49901 -14.9493,4.2145 -22.894,6.1044 -7.9447,1.88989 -15.8384,7.6963 -22.6373,9.61435 -13.5001,11.84046 -11.1307,7.1854 -22.5296,11.2587 -14.4399,6.18287 -64.0164,13.17731 -80.9079,15.96005 -16.8915,2.78273 -2.1063,13.13108 -2.375,17.84375 -0.2687,4.71267 8.4134,3.58321 10.2812,0.78125 1.8678,-2.80197 4.1618,-8.84558 7.4291,-5.59948 3.2673,3.24609 7.5044,0.44307 10.5255,2.10234 3.021,1.65927 6.2823,1.49226 7.0907,-3.33242 0.8084,-4.82468 7.8428,0.4272 13.5173,-0.23294 5.6744,-0.66015 16.3157,-5.93564 25.3124,-8.09375 8.9967,-2.15812 14.237,-11.11789 24.5313,-14.5625 10.2942,-3.44461 24.9556,-11.55881 36.0625,-17.40625 11.1068,-5.84744 27.7957,-2.90356 39.0938,6.53125 11.2981,9.43481 23.4237,26.91256 30.1562,32.90625 6.7325,5.99368 7.108,9.37316 8.8438,2.125 1.7357,-7.24817 -5.2782,-15.96949 -11.2927,-25.08329 -6.0146,-9.1138 -17.5441,-21.70656 -26.6279,-26.71781 -9.0839,-5.01126 -15.3731,-3.6999 -23.5794,-4.1989 z m 64,65.21875 c -3.3343,6.88353 0.544,31.10011 6.125,37.125 5.581,6.02489 4.6219,6.61812 6.9374,-2.0625 2.3155,-8.68062 -8.6182,-28.19165 -10.0211,-37.63385 -1.4029,-9.44221 0.293,-4.31219 -3.0413,2.57135 z m 12.9062,38.8125 c -5.0192,0.22728 -7.1376,6.72963 -3.7812,11.125 3.3564,4.39537 11.5943,1.62833 11.8124,-3.71875 0.2181,-5.34708 -3.012,-7.63354 -8.0312,-7.40625 z m 5.2188,15.0625 c -4.3755,0.54994 -5.3271,7.64932 -2.4688,13.03125 2.8582,5.38193 12.1941,12.19286 18.461,11.31153 6.2668,-0.88133 11.8378,2.51353 13.8202,-2.09278 1.9823,-4.60632 8.0293,-5.05706 12.2504,-3.81582 4.221,1.24124 12.2893,4.84453 13.1559,-1.74668 0.8666,-6.59121 -6.8049,-8.74474 -13.3125,-8.625 -6.5076,0.11973 -17.0165,1.64851 -23.7188,2.3125 -6.7024,0.66399 -9.7452,-5.51405 -11.4062,-8.625 -1.6611,-3.11094 -2.4058,-2.29994 -6.7812,-1.75 z m 80.7812,32.03125 c -4.8975,0.86995 -5.7272,8.07051 -3.375,11.03125 2.3521,2.96074 5.2008,1.70213 10.2188,-0.4375 5.018,-2.13963 -1.9463,-11.4637 -6.8438,-10.59375 z m 48.125,17.25 c -5.2842,0.64043 -3.5783,13.2398 2.5312,12.46875 6.1095,-0.77106 8.3656,-6.38464 5.2813,-9.34375 -3.0843,-2.95911 -2.5283,-3.76543 -7.8125,-3.125 z"
                   style="fill:#1619f5"
                   inkscape:connector-curvature="0" />
                <path
                   sodipodi:nodetypes="cccccccccccccccccsscccccssccccccccc"
                   id="path3032"
                   d="m -1438.2188,56.84375 c -6.0104,1.941435 -1.4659,9.196669 -3.1634,13.426258 0.6734,3.649297 10.2941,0.541196 14.601,1.479992 11.1717,-0.163145 22.4366,0.546461 33.25,2.875 14.3281,-2.376781 28.9635,1.205293 43.4374,-0.0625 14.7389,0.861369 29.3093,4.025922 43.2188,8.46875 21.6788,9.578599 36.3253,29.84704 47.6562,49.9375 7.9807,16.33346 14.9965,33.25793 24.9376,48.59375 3.548,5.83059 4.9473,12.82818 6.5312,19.09375 2.4656,3.79666 7.9614,1.55388 8.125,-2.6875 1.8862,-5.23379 -1.3196,-9.77373 -3.2093,-14.27089 -6.018,-17.20374 -12.1963,-34.38742 -19.8771,-50.80383 -9.3333,-17.23467 -19.5782,-34.472652 -33.8198,-48.08153 -11.7244,-10.316742 -26.2538,-17.68972 -41.8126,-20.125 -11.6794,-5.29466 -25.1118,1.940609 -36.6473,-3.507955 -27.5841,-3.47793 -55.5695,-1.76376 -83.2277,-4.335795 z m 232.9063,191.1875 c -3.6381,0.55492 -8.1778,4.65505 -7.5,7 0.7149,2.47357 9.4823,0.84755 10.5,2.96875 2.1924,4.56992 7.6169,13.4573 14.8125,11.625 9.7364,-1.09997 19.7046,-4.57996 29.2812,-0.9375 4.3498,1.21582 7.1491,-4.00793 4.3126,-7.28125 -3.0145,-5.20133 -9.1426,-6.50265 -13.9688,-9.1875 -8.9003,-3.34565 -17.065,4.21507 -25.5938,4.03125 -1.5802,-1.3769 -5.868,-0.79064 -5.9374,-1.78125 -0.2066,-2.94809 -2.4197,-6.96933 -5.9063,-6.4375 z m 54.125,21.15625 c -5.1946,0.87661 -2.6418,7.34353 0.1563,9.59375 2.5264,4.05687 8.4434,3.33118 9.25,-1.5 0.5919,-4.77188 -5.2195,-8.35427 -9.4063,-8.09375 z m 15.7187,11.28125 c -5.6021,0.23047 -6.9495,8.55145 -1.75,10.5625 4.3409,2.61888 12.2709,2.39577 13.5938,-3.5 -0.248,-4.21255 -5.656,-3.43354 -7.8438,-6.15625 -1.2224,-0.62895 -2.5906,-1.07064 -4,-0.90625 z"
                   style="fill:#14f314"
                   inkscape:connector-curvature="0" />
                <path
                   sodipodi:nodetypes="czzzzzzzzzzzzzzzczzzczzzzzzczzzczzz"
                   id="path3034"
                   d="m -1432.875,-13.46875 c -6.1503,0.105426 -9.4402,2.31037 -8.5,7.5055984 0.9402,5.19522843 5.7749,6.16938091 12.0938,6.9631516 6.3189,0.7937707 54.6292,4.599948 79.0937,10.5 24.4644,5.900052 45.8441,20.080452 59.9375,38.59375 14.0934,18.513298 24.648,42.884961 31.9688,57.84375 7.3208,14.95879 8.4645,27.23119 15.8124,30.4375 7.3479,3.20631 7.2865,-7.47083 4.4063,-12.53125 -2.8802,-5.06043 -3.999,-8.36138 -6.0937,-18.03125 -2.0947,-9.66987 -10.3031,-28.477955 -16.5626,-39.0625 -6.2595,-10.584545 -7.2653,-15.840932 -15.5624,-26.9375 -8.2971,-11.096568 -26.5004,-26.227515 -41.9376,-33.34375 -15.4371,-7.116235 -30.1085,-9.6960731 -44.875,-13.4375 -14.7664,-3.7414269 -35.937,-4.8154932 -44.375,-5.806822 -8.438,-0.991329 -1.9497,-0.709443 -6.1874,-0.943178 -4.2377,-0.233735 -13.0684,-1.855426 -19.2188,-1.75 z m 198.75,166.09375 c -3.7624,0.63964 -2.4064,7.97475 0.75,10.25 3.1564,2.27525 7.4363,-5.35227 4.9062,-7.78125 -2.5302,-2.42898 -1.8938,-3.10839 -5.6562,-2.46875 z m 52.875,88.8125 c -6.5124,0.40947 -24.1524,1.02925 -27.4062,6 -3.2538,4.97075 9.4733,11.70555 17.75,10.21875 8.2767,-1.48681 20.6529,-2.81702 27.0937,1.15625 6.4407,3.97327 6.3319,-3.67852 4.9063,-8.25 -1.4256,-4.57148 -7.2561,-7.57048 -11.4688,-8.40625 -4.2127,-0.83577 -4.3626,-1.12822 -10.875,-0.71875 z m 28.9062,21.4375 c -3.3593,0.66027 -3.5375,7.99204 0.1563,9.0625 3.6938,1.07046 7.2722,-1.64313 5.6875,-4.625 -1.5847,-2.98187 -2.4845,-5.09777 -5.8438,-4.4375 z m 10.5,13.34375 c -4.052,0.66465 -0.9369,9.10678 3.4376,8.28125 4.3745,-0.82554 5.5728,-4.34911 2.9687,-6.125 -2.6042,-1.77589 -2.3543,-2.8209 -6.4063,-2.15625 z"
                   style="fill:#f31412"
                   inkscape:connector-curvature="0" />
              </g>
              <text
                 xml:space="preserve"
                 style="font-style:normal;font-variant:normal;font-weight:normal;font-stretch:normal;line-height:0%;font-family:'Linux Libertine O';-inkscape-font-specification:'Linux Libertine O';fill:#000000;fill-opacity:1;stroke:none"
                 x="-1633.1123"
                 y="377.58603"
                 id="text3036"><tspan
                   sodipodi:role="line"
                   x="-1633.1123"
                   y="377.58603"
                   style="font-style:normal;font-variant:normal;font-weight:normal;font-stretch:normal;font-size:129.09599304px;line-height:80.00000119%;font-family:'Linux Libertine O';-inkscape-font-specification:'Linux Libertine O, Normal';font-variant-ligatures:normal;font-variant-caps:small-caps;font-variant-numeric:normal;font-feature-settings:normal;text-align:start;writing-mode:lr-tb;text-anchor:start"
                   id="tspan3040">SASfit</tspan></text>
            </g>
          </g>
        </g>
      </g>
    </g>
  </g>
</svg>
